<svg opacity="0.05" width="500" height="500" xmlns="http://www.w3.org/2000/svg"><path d="M71.336 152.994q.004-.004.034 1.186.04 1.18.06 2.85.02 1.68-.06 3.25t-.1 3.5q-.03 1.93.03 3.85.07 1.92 1.73 2.75 1.67.83 3.44 1.16 1.78.33 3.31.35 1.53.03 3.29-.18 1.76-.2 3.26-.66 1.51-.47 2.93-1.55 1.43-1.08 2.57-2.34 1.14-1.26 2.63-3.21 1.49-1.94 2.68-3.67 1.19-1.74 2.13-3.21.93-1.48 1.91-2.99.98-1.51 1.9-3.07.91-1.55 1.87-3.01.95-1.45 1.95-2.71 1-1.25 2.03-2.42 1.03-1.17 2.05-2.41 1.02-1.24 2.17-2.82 1.15-1.59 2.23-3.21 1.07-1.61 2.01-3.17.93-1.55 1.82-3.4.89-1.84 1.7-3.77.81-1.93 1.42-3.31.61-1.39 1.27-2.94t1.46-3.18q.81-1.62 1.55-2.96.73-1.33 2.17-2.97 1.44-1.64 2.63-2.7 1.18-1.07 2.61-1.93 1.43-.85 2.94-1.47 1.5-.61 2.96-.98 1.45-.38 3.23-.56 1.78-.19 3.43-.28 1.65-.09 3.18-.11 1.54-.01 3.29-.03 1.76-.01 3.37.11 1.62.11 3.47.19 1.85.07 3.64-.35t3.22-1.1q1.44-.68 2.18-2.08.75-1.39.02-2.89-.73-1.5-1.95-2.65t-2.52-1.96q-1.29-.82-2.93-1.7-1.64-.88-2.93-1.68-1.29-.8-2.75-1.64-1.45-.84-3.22-1.78-1.77-.93-3.15-1.7-1.38-.78-3.16-1.81-1.79-1.04-3.28-1.95-1.5-.91-3.25-1.88-1.76-.97-3.23-1.7-1.48-.72-3.24-1.6-1.77-.88-3.41-1.72-1.64-.83-2.99-1.63-1.34-.79-2.83-1.29-1.5-.5-3.22-1.06-1.72-.56-3.38-.69-1.67-.14-2.27 1.33-.61 1.47.28 2.85.88 1.39 2.08 2.45 1.19 1.07 2.5 2.32 1.31 1.26 2.25 2.47.93 1.21 1.69 2.97.75 1.75.79 3.58.05 1.83-.02 3.67-.06 1.84-.55 3.8-.5 1.96-1.09 3.57-.59 1.61-1.45 3.4-.86 1.79-1.66 3.3-.81 1.51-1.83 3.17-1.01 1.66-2.19 3.3-1.17 1.64-2.3 3.15-1.12 1.5-2.07 2.69-.95 1.19-1.95 2.54t-1.99 2.8q-.98 1.45-1.97 2.69t-2.12 2.62q-1.14 1.38-2.12 2.56-.98 1.18-1.88 2.41-.9 1.24-1.88 2.65-.99 1.42-2.22 3.01-1.22 1.59-2.26 2.86-1.03 1.28-2.36 2.52-1.34 1.24-2.6 2.23-1.25.99-2.56 1.91-1.3.93-2.78 1.85-1.48.92-3.04 2.08-1.57 1.17-2.72 2.24-1.16 1.08-2.37 2.69-1.22 1.61-1.41 2.24-.2.63-.59 1.17-.38.53-.92.92-.54.38-1.17.58-.63.19-1.3.17-.66-.02-1.28-.25t-1.13-.65q-.51-.41-.87-.97-.35-.56-.51-1.2-.16-.64-.1-1.3.05-.66.32-1.27.26-.6.7-1.09.44-.5 1.02-.82.58-.32 1.23-.45.65-.12 1.3-.03.66.09 1.25.39.59.3 1.06.76.46.47.75 1.07.3.59.38 1.24.09.66-.04 1.31-.12.65-.45 1.22-.33.58-.82 1.02-.49.44-1.1.7-.61.26-1.27.31-.66.05-1.3-.11t-1.2-.52q-.55-.36-.97-.88-.41-.51-.63-1.13-.23-.63-.25-1.29l-.01-.66 1.45-2.71q1.45-2.72 2.5-4.03t2.43-2.56q1.39-1.26 2.82-2.32 1.43-1.06 2.82-1.96 1.39-.89 2.89-1.95 1.51-1.06 2.91-2.16 1.41-1.1 2.77-2.49 1.36-1.4 2.66-3.11t2.15-2.96q.85-1.25 1.82-2.59.97-1.35 2.1-2.75 1.13-1.41 2.14-2.58 1-1.18 2-2.4 1-1.21 1.99-2.66.99-1.45 2.09-2.93 1.09-1.49 2.25-2.93 1.15-1.44 2.14-2.77 1-1.33 1.97-2.73.98-1.41 1.8-2.79.83-1.39 1.65-2.97.81-1.58 1.46-3.01.64-1.42 1.14-2.88.5-1.46.75-3.42t.17-3.58q-.08-1.62-1.21-2.86-1.13-1.24-2.26-2.34-1.12-1.09-2.39-2.17-1.26-1.08-2.28-2.21-1.01-1.14-1.44-2.87-.43-1.74-.39-3.45.05-1.71.74-3.55.69-1.84 1.84-3.28 1.15-1.43 2.39-2.52 1.24-1.08 3.19-1.63 1.95-.54 3.57-.42 1.62.13 3.25.57 1.64.45 3.06.95 1.41.5 2.97 1.1 1.56.61 2.93 1.41 1.37.81 2.77 1.62 1.39.81 2.76 1.49 1.36.68 2.94 1.52 1.58.84 3.19 1.71 1.61.86 3.07 1.69 1.46.83 2.98 1.76 1.52.92 3.35 1.96t3.59 1.97q1.77.93 3.74 1.93 1.98 1 3.52 1.94t3.31 1.85q1.77.92 3.19 1.79t2.76 1.87q1.34 1 2.37 2.24 1.02 1.23 2.08 2.96 1.07 1.73 1.5 4.15.43 2.43.15 4.08-.29 1.65-1.22 3.21-.92 1.57-2.06 2.7-1.14 1.13-2.62 2-1.48.87-3.1 1.45-1.62.57-3.33 1-1.71.44-3.8.48-2.1.04-3.67-.11-1.57-.14-3.11-.21-1.53-.07-3.07-.08-1.53-.01-3.15-.01-1.61 0-3.2.07-1.59.08-3.33.47-1.74.39-3.21 1.15-1.46.77-2.89 1.81-1.44 1.04-2.46 2.72-1.02 1.67-1.74 3.04-.71 1.37-1.4 2.87-.68 1.5-1.54 3.45-.85 1.95-1.78 3.96-.92 2-1.71 3.52-.79 1.51-1.78 3.14-.98 1.63-2.2 3.5-1.21 1.86-2.42 3.57-1.22 1.71-2.36 3.08t-2.55 2.96q-1.41 1.59-2.68 3.34-1.27 1.74-2.2 3.3-.93 1.56-1.96 3.11-1.03 1.55-2.02 3.08-.99 1.52-2.25 3.39-1.27 1.86-2.86 4.07-1.59 2.2-3.09 3.84-1.49 1.64-3.13 2.89-1.63 1.26-3.61 2.09-1.98.83-4.36 1.32-2.38.48-4.39.52-2.01.04-3.85-.1-1.85-.14-3.49-.59-1.63-.45-3.99-1.52-2.35-1.07-3.69-2.7-1.35-1.63-1.46-3.51-.12-1.88-.06-3.41.06-1.52.18-3.13.13-1.62.4-3.21.27-1.6.43-3.52.16-1.93.19-3.11.04-1.19.08-1.5.04-.31.15-.61.11-.29.29-.55.18-.26.42-.47.23-.21.51-.36.28-.14.59-.22.3-.07.62-.07t.62.07q.31.08.59.22.28.15.51.36.24.21.42.47t.29.55q.11.3.15.61l.04.31ZM126.105 47.07q.005 0 2.165.77 2.17.76 4.03 1.62 1.86.85 3.62 1.73 1.75.88 3.49 1.78 1.73.9 3.1 1.62 1.37.73 2.74 1.44 1.38.72 3.5 1.85l3.69 1.95q1.57.82 3.19 1.72 1.63.91 3.12 1.65 1.5.73 2.96 1.63 1.47.9 2.95 1.82 1.48.92 3.05 1.9 1.56.98 2.93 1.8 1.37.81 2.86 1.79 1.5.98 3 1.88 1.51.9 2.93 1.67 1.42.76 3.01.75 1.59-.01 2.81-1.15t2.33-2.62q1.11-1.48 2.1-2.99 1-1.5 2.07-3.31 1.07-1.81 1.9-3.33.83-1.51 1.81-3.56.98-2.06 1.85-3.86.86-1.81 1.61-3.36.75-1.56 1.34-3.32.59-1.77 1.05-3.22.47-1.45 1.02-2.87.55-1.43 1.27-3.2.72-1.77 1.32-3.23.6-1.47.98-3 .39-1.52.51-3.08.11-1.56-1.24-2.49-1.35-.93-2.92-1.15-1.58-.23-3.07-.87-1.49-.64-2.61.74-1.12 1.37-2.39 2.76-1.28 1.39-2.56 2.62-1.29 1.24-2.6 2.73-1.31 1.5-2.93 2.62-1.61 1.12-3.35.76-1.74-.35-2.73-1.92-.99-1.56-1-3.19 0-1.63.03-3.2.03-1.58.08-3.53.05-1.96.05-3.61 0-1.66-.69-3.15-.69-1.48-2.44-2.41-1.76-.92-3.31-1.51-1.56-.59-3.59-1.3-2.03-.72-3.43-1.3-1.4-.59-2.89-1.07-1.49-.48-3.21-1.15-1.72-.66-3.23-.81-1.52-.15-1.81 1.54-.3 1.68-1.25 3.58-.96 1.9-1.96 3.87-1 1.98-2.03 3.87-1.04 1.9-1.76 3.26-.72 1.35-1.47 2.78-.75 1.43-1.4 2.84-.65 1.41-1.56 3.19t-1.8 3.13q-.88 1.36-2.05 2.54-1.16 1.19-2.47 2.39-1.31 1.19-2.35 2.3-1.03 1.11-2.04.11-1.01-.99-.72-.4.29.6.38 1.25.08.66-.05 1.31-.12.65-.45 1.23-.33.57-.83 1.01-.5.44-1.11.7-.61.26-1.27.31-.66.05-1.3-.12-.64-.16-1.2-.52-.56-.36-.97-.88-.41-.52-.64-1.14-.22-.63-.23-1.29-.02-.66.18-1.29.2-.64.59-1.17.39-.54.93-.92.54-.39 1.17-.58.64-.19 1.3-.16.66.02 1.29.25.62.23 1.13.65.51.42.87.98.35.56.51 1.2.15.65.1 1.31-.06.66-.33 1.27-.26.6-.71 1.09-.44.5-1.02.82-.58.32-1.23.44-.66.12-1.31.03-.66-.09-1.25-.39-.59-.3-1.06-.77l-.46-.47 1.45-4.25q1.46-4.25 2.53-5.36 1.08-1.12 2.26-2.18 1.18-1.07 2.34-2.17 1.17-1.1 2.13-2.79.97-1.68 1.71-3.28.73-1.6 1.42-2.94.69-1.35 1.43-2.75t1.65-3.11q.92-1.71 1.82-3.59.91-1.87 1.56-3.26l1.57-3.38q.92-2 1.51-3.4t2.01-2.92q1.42-1.52 3.49-1.82 2.06-.31 3.68-.22t3.09.72q1.46.64 3.14 1.25 1.68.61 3.14 1.15 1.46.53 2.85 1.12 1.39.58 3.48 1.25 2.08.68 3.52 1.24 1.45.55 3.07 1.43 1.62.87 3.35 2.01 1.73 1.14 2.7 2.78.97 1.64 1.23 3.25.25 1.62.24 3.32-.01 1.7.01 3.26.02 1.57.08 3.51.05 1.94.07 4.09.02 2.14-.93.94-.95-1.2-3.38-1.22-2.43-.01-1.33-1.23l2.38-2.64q1.27-1.41 2.59-2.8 1.33-1.4 2.5-2.58 1.16-1.19 2.61-2.25t2.74-2.14q1.29-1.07 3.14-1.18 1.84-.12 3.28.55 1.44.67 2.92 1.05 1.49.38 3.12 1 1.64.62 2.94 1.56 1.29.94 2.66 2.15 1.36 1.2 1.76 3.12.41 1.91.31 3.46-.1 1.56-.4 3.08-.3 1.52-.8 3.3-.51 1.79-1.21 3.37t-1.35 3.13q-.65 1.55-1.32 3.29-.67 1.75-1.15 3.19-.48 1.44-1.12 3.2-.65 1.76-1.36 3.21-.72 1.45-1.59 3.29-.87 1.83-1.52 3.29-.65 1.45-1.42 2.99-.77 1.54-1.98 3.74t-2.35 4.08q-1.13 1.88-2.06 3.17-.93 1.29-2.02 2.63-1.08 1.33-2.23 2.33-1.14.99-2.59 1.78t-3.31 1.09q-1.86.31-3.61.23-1.75-.08-3.25-.75t-2.92-1.55q-1.41-.89-2.72-1.8-1.32-.91-2.68-1.91-1.36-1.01-2.69-1.87-1.33-.86-2.74-1.84-1.42-.97-2.91-2.03-1.5-1.05-2.7-1.98-1.2-.93-2.79-1.87-1.58-.94-3.08-1.9-1.49-.95-3.03-1.91-1.54-.95-3.56-2.18-2.02-1.23-4.66-2.75-2.65-1.52-4.35-2.41-1.7-.9-3.39-1.76-1.68-.86-3.28-1.62-1.59-.77-3.78-1.47-2.18-.69-2.46-.83-.28-.13-.52-.32-.23-.2-.42-.44-.18-.25-.3-.53-.12-.29-.17-.59-.05-.3-.02-.61.02-.31.12-.6.1-.29.26-.55.17-.26.39-.47.22-.22.49-.37t.56-.24q.3-.08.61-.09.3-.01.6.05l.31.06Z"/><path d="m79.994 164.595-.404-.385q-.4-.39-1.05-2.03-.66-1.65-.39-3.35.27-1.7 1.2-2.89.92-1.2 2.33-2.1 1.41-.9 2.99-1.02 1.58-.13 3.04.39 1.46.53 2.53 2.27 1.08 1.75 1.25 3.26.18 1.51.1 3.06-.07 1.55-1.09 2.89-1.01 1.34-4.01 2.76-2.99 1.41-3.58 1.38-.58-.02-1.13-.23-.55-.21-1-.58-.46-.38-.77-.88t-.44-1.07q-.13-.57-.08-1.16.06-.58.3-1.12.24-.54.63-.97.4-.43.92-.71.51-.28 1.09-.39.58-.1 1.16-.01.58.08 1.11.35.52.27.93.69.41.42.66.95.26.53.33 1.12.07.58-.05 1.16-.12.57-.41 1.08-.3.51-.74.89-.45.39-.99.61-.54.23-1.13.27-.58.04-1.15-.11t-1.06-.47q-.49-.33-.85-.79-.37-.46-.56-1.02-.2-.55-.2-1.14-.01-.59.17-1.15.18-.56.53-1.03.35-.47.83-.81.48-.33 1.04-.5l.57-.16 1.04.09q1.05.09 1.64-1.29.6-1.39-.88-.69t-1.14 1.13q.34.43.5.67.17.24.28.52.11.27.15.56.03.29 0 .59-.03.29-.13.57-.1.27-.27.51-.16.25-.38.45-.22.19-.48.33t-.54.21q-.29.08-.58.08-.3 0-.58-.06-.29-.07-.55-.21-.26-.13-.48-.32l-.23-.2ZM177.89 334.229l-1.92.001q-1.91-.01-5.3-.12-3.4-.12-6.24-.5-2.85-.38-4.37-.67-1.53-.29-3.83-.82-2.31-.54-4.33-.98-2.03-.45-3.75-.96-1.72-.5-3.8-1.32-2.08-.82-3.88-1.96-1.79-1.14-3.44-2.71-1.65-1.58-2.58-2.83-.94-1.25-1.65-2.6-.72-1.35-1.41-2.78-.7-1.44-1.58-3.41-.88-1.98-1.67-3.87-.8-1.89-1.33-3.37-.53-1.49-1.11-3.72-.59-2.23-.85-4.3t-.4-3.92q-.14-1.86-.37-3.72-.23-1.86-.38-3.94-.16-2.09-.26-4.02-.11-1.94-.31-3.99-.19-2.06-.5-3.72-.3-1.67-.74-3.29-.45-1.61-.96-3.14-.5-1.53-.99-2.99-.48-1.45-.92-3.09-.44-1.65-.86-3.16-.42-1.51-.72-3.15-.3-1.63-.39-3.14-.1-1.51-.1-1.81 0-.29.06-.79.05-.49.23-.96t.46-.88q.28-.41.66-.74.37-.33.81-.56.44-.23.92-.35.49-.12.99-.12t.98.11q.48.12.93.35.44.24.81.57.37.33.66.74.28.41.46.87.18.47.24.96.06.5.06.71 0 .2-.06.7-.06.49-.24.96t-.46.88q-.28.41-.66.74-.37.33-.81.56-.44.23-.93.35-.48.12-.98.12t-.98-.12q-.49-.12-.93-.35-.44-.23-.81-.56-.38-.33-.66-.74t-.46-.88q-.18-.47-.24-.96-.06-.5-.24-2.11-.19-1.61-.39-3.18-.2-1.56-.39-3.07-.19-1.51-.4-3.44-.21-1.93-.44-3.59-.22-1.65-.42-3.88-.2-2.22-.46-4.03t-.47-3.3q-.21-1.49 1.83-4.36t4-2.17q1.97.69 4.08 2.64 2.11 1.94 3.45 3.37 1.33 1.42 2.73 3.1 1.4 1.68 2.45 2.89 1.05 1.2 2.02 2.42.96 1.21 2.39 2.94 1.43 1.74 2.55 3.11 1.13 1.38 2.46 2.84 1.32 1.47 2.38 2.56 1.05 1.08 2.7.22 1.65-.86 3.36-1.08 1.7-.22 3.68-.4 1.98-.17 4.02-.28 2.04-.11 4.05-.19 2.01-.09 4.08-.1 2.06-.02 4.09 0 2.03.01 3.59-.01 1.56-.01 3.1-.03 1.54-.01 4.29-.04 2.74-.03 4.48.03 1.73.06 3.3.26 1.56.2 3.27.08 1.71-.12 3.26-.14 1.55-.02 3.34.15 1.8.17 3.6.28 1.81.1 3.31.21 1.5.1-.01 1.22-1.52 1.11-.91-.73.62-1.84 1.87-3.85 1.25-2 2.68-3.93 1.44-1.92 3.06-3.66 1.61-1.75 3.08-3.15 1.47-1.41 2.87-2.76 1.4-1.34 3.17-2.21 1.78-.87 3.67.28t2 2.7q.11 1.56.81 3.61.71 2.05 1.25 3.96.55 1.9.95 3.98.4 2.09.44 4.07.05 1.98.07 3.78.02 1.81.04 3.31.02 1.51-.31 3.34-.33 1.82-.67 3.34-.34 1.52-.8 3.1t-1.15 3.89q-.69 2.31-1.27 4.17-.57 1.86-1.19 4-.61 2.14-1.15 4.38-.54 2.25-1.39 5.05-.85 2.81-1.85 5.69-1 2.88-2.1 5.38-1.11 2.5-2.18 4.7-1.08 2.2-2.22 4.34-1.14 2.14-2.54 4.25-1.4 2.12-2.37 3.66-.97 1.55-1.98 2.9-1.01 1.35-2.22 2.78-1.21 1.43-2.37 3-1.15 1.57-2.57 3.13-1.41 1.55-2.81 2.41-1.39.86-2.69 1.86-1.29.99-2.79 2.29-1.49 1.3-3.34 2.35-1.86 1.06-3.52 1.72-1.66.67-3.13 1.17-1.48.5-3.54.69-2.07.2-2.68.1-.61-.1-1.16-.39-.54-.29-.97-.74-.43-.45-.69-1.01-.26-.56-.33-1.18-.06-.61.07-1.22.13-.6.45-1.13.32-.53.79-.93.47-.41 1.05-.64.57-.23 1.19-.26t1.22.13q.59.17 1.11.51.51.35.88.84.38.49.58 1.08.2.59.2 1.21t-.2 1.2q-.2.59-.57 1.08-.38.5-.89.85-.51.34-1.11.51-.59.17-1.21.13-.62-.03-1.19-.26-.58-.23-1.05-.63-.48-.4-.8-.93-.31-.53-.45-1.13-.13-.61-.07-1.22.07-.62.33-1.18.26-.56.68-1.01.43-.45.98-.74.54-.29 1.15-.4.62-.1.61-.1l2.26-.43q2.26-.44 4.04-1.14 1.79-.71 3.53-1.89 1.73-1.18 3.08-2.29 1.35-1.12 2.81-2.02 1.47-.9 2.64-1.91 1.18-1 2.2-2.37 1.02-1.37 2.27-2.73 1.25-1.36 2.45-2.82 1.21-1.47 2.25-3.03 1.03-1.56 2.18-3.26 1.16-1.7 2.3-3.87 1.14-2.16 2.17-4.28 1.02-2.12 1.95-4.29.93-2.17 1.76-4.92.84-2.76 1.49-5.41.65-2.66 1.13-5.04.48-2.39 1.02-4.6.54-2.22 1.05-4.05.5-1.84.96-3.63.46-1.79 1.03-3.62.57-1.82.99-3.6.42-1.78.68-3.29.26-1.51.28-3.24.02-1.73.02-3.24.01-1.51-.09-3.36-.09-1.85-.6-3.63-.5-1.78-1.06-3.54t-.28-3.61q.29-1.85 2.3-1.54 2.01.3.7 1.53-1.3 1.23-2.53 2.38-1.22 1.15-2.54 2.47-1.31 1.32-2.51 2.82-1.19 1.5-2.37 3.29-1.19 1.79-2.11 4-.93 2.21-2.55 3.42-1.61 1.22-3.47 1.11-1.85-.12-3.54-.24-1.69-.13-3.55-.41-1.85-.29-3.4-.31-1.55-.02-3.18-.1-1.63-.07-3.12-.34-1.49-.27-3.38-.5-1.89-.24-4.62-.27-2.74-.02-4.27-.02-1.53-.01-3.07 0-1.54 0-3.52.07-1.98.06-3.92.17-1.93.11-3.89.31-1.96.2-3.85.43-1.89.23-3.75.54-1.86.32-3.35.6-1.49.28-3.95.87-2.47.58-4.44.35-1.97-.24-3.3-1.7-1.32-1.46-2.42-2.75-1.1-1.3-2.25-2.7-1.14-1.41-2.25-2.86-1.1-1.46-2.74-3.44-1.65-1.98-2.74-3.12-1.08-1.14-2.5-2.52-1.42-1.37-2.79-2.55-1.37-1.18-3.25-3.31-1.88-2.12.3-3.46 2.19-1.34 2.43.3.23 1.64.47 3.28.24 1.64.43 3.46.18 1.83.43 3.64l.5 3.77q.26 1.97.56 4.03.29 2.06.66 4.16.36 2.09.48 3.7.11 1.6.05 2.1-.06.49-.24.96-.17.47-.46.88-.28.41-.65.74-.38.33-.82.56-.44.23-.93.35-.48.12-.98.12t-.98-.12q-.49-.12-.93-.35-.44-.23-.81-.56-.38-.33-.66-.74t-.46-.88q-.18-.47-.24-.96-.06-.5-.06-.7.01-.2.07-.7.05-.49.23-.96t.46-.88q.28-.41.66-.74.37-.33.81-.56.44-.23.92-.35.49-.12.99-.12.49 0 .98.11.48.12.92.35.45.24.82.57.37.33.66.74.28.41.46.87.18.47.24.96.06.5.05.66 0 .16-.07 1.71-.07 1.56.43 3.41.49 1.85.92 3.37.43 1.51.89 3.17.45 1.65.94 3.27.49 1.61.91 3.32.41 1.71.72 3.47.31 1.77.53 3.54.22 1.77.27 3.61.06 1.84.15 3.68.09 1.83.25 3.68t.3 3.36q.15 1.5.28 3.16.13 1.66.49 3.97.37 2.3.87 4.15.49 1.84 1.22 3.72.72 1.88 1.56 3.83.85 1.94 1.64 3.78.79 1.84 1.56 3.37t1.98 2.9q1.2 1.38 2.65 2.53 1.46 1.15 3.11 1.93 1.64.77 3.16 1.32 1.51.54 3.47 1.07 1.96.53 4.07 1.14 2.11.6 3.61.91 1.5.31 4.03.76 2.53.45 5.72.61 3.19.17 5.1.16 1.92 0 2.23.04.32.04.61.15.3.11.56.29.26.18.47.42.2.23.35.51.15.28.22.59.08.3.08.62t-.08.62q-.07.31-.22.59-.15.28-.35.51-.21.24-.47.42t-.56.29q-.29.11-.61.15l-.31.04Z"/><path d="M155.105 281.474q.005-.004.225.306t.33.68q.11.36.1.74-.01.38-.14.74-.13.35-.37.65-.24.3-.56.5-.32.21-.69.3-.37.09-.75.06t-.72-.18q-.35-.15-.64-.41-.28-.25-.47-.58-.19-.33-.26-.71-.07-.37-.02-.75.05-.37.22-.71.17-.35.44-.61.27-.27.61-.44.34-.17.72-.22.38-.05.75.02t.7.26q.34.18.59.47.25.28.4.63.15.35.19.73.03.38-.07.75-.09.37-.29.69-.21.32-.5.56-.3.23-.66.37-.36.13-.74.14-.38.01-.74-.1-.36-.12-.67-.34l-.31-.22-.25-.16q-.25-.17-.46-.38-.21-.22-.35-.48-.15-.26-.23-.55-.08-.29-.09-.59-.01-.3.05-.59.06-.3.2-.57.13-.27.32-.5.19-.23.43-.41.24-.17.52-.29.28-.11.57-.16.3-.05.6-.02.3.03.58.13.29.09.86.67ZM196.93 280.462q0-.002.22.308t.34.67q.11.37.1.75-.01.38-.14.74-.14.35-.37.65-.24.3-.56.5-.32.21-.69.3-.37.09-.75.06t-.73-.18q-.35-.15-.63-.41-.29-.25-.47-.58-.19-.33-.26-.71-.07-.37-.02-.75t.22-.72q.17-.34.44-.61.27-.27.61-.43.34-.17.71-.22.38-.06.76.02.37.07.7.25.33.19.59.48.25.28.4.63.15.35.18.73t-.06.75q-.09.36-.3.69-.2.32-.5.55-.3.24-.65.37-.36.13-.74.14-.38.02-.74-.1-.37-.11-.68-.33l-.31-.22-.25-.16q-.25-.17-.46-.39-.2-.21-.35-.48-.15-.26-.23-.55-.08-.28-.09-.58-.01-.3.06-.6.06-.29.19-.56.13-.27.32-.5.2-.23.44-.41.24-.18.52-.29.27-.12.57-.16.3-.05.59-.02.3.03.59.12.28.1.86.68ZM171.12 310.286l.09 1.264q.08 1.27 1.09 2.43 1.01 1.17 2.73 1.32 1.72.14 2.59-1.36.86-1.5 1.1-2.8.23-1.3.35-1.86.11-.56.4-1.06.29-.49.72-.87t.95-.6q.53-.22 1.1-.25.57-.04 1.13.1.55.15 1.03.46.48.31.83.76t.54.99q.19.54.2 1.11.01.58-.16 1.12-.18.54-.52 1.01-.34.46-.8.78-.47.33-1.02.49-.55.16-1.12.14-.57-.02-1.11-.22-.53-.21-.97-.57-.45-.37-.75-.85-.3-.49-.43-1.04-.13-.56-.08-1.13.05-.57.29-1.09.23-.52.62-.95.38-.42.88-.69.51-.28 1.07-.38.56-.1 1.13-.02.56.09 1.07.35t.91.67q.4.41.65.92.25.52.32 1.09l.07.56-.66 2.76q-.66 2.75-1.5 4.14-.84 1.4-2.28 2.79-1.44 1.39-3.61 1.72-2.16.32-4.12.01-1.96-.32-3.44-1.3-1.47-.99-2.56-2.28-1.09-1.29-1.42-3.12-.33-1.82-.33-3.09-.01-1.27.02-1.58.02-.3.12-.58.1-.29.26-.55.16-.25.38-.46.22-.21.49-.36.26-.15.55-.24.29-.08.6-.09.3-.01.6.05.29.06.57.19.27.14.5.33.24.19.42.43.18.25.3.53t.16.58l.05.3ZM148.138 299.345q.002.005-2.498-.035t-4.99-.19q-2.48-.16-4.97-.53-2.48-.36-4.9-.82-2.42-.45-4.58-.82-2.16-.37-4.35-.8-2.19-.43-4.29-.88-2.1-.44-3.72-.7-1.63-.26-3.17-.47-1.54-.21-4.04-.49-2.51-.28-5.1-.77t-2.97-.68q-.37-.2-.67-.51-.29-.3-.48-.69-.18-.38-.23-.8-.05-.43.04-.84.09-.42.31-.78.21-.37.53-.65.33-.28.72-.44.39-.16.82-.18.42-.03.83.08.42.11.77.35.35.23.61.57.26.34.4.74.14.4.14.83.01.42-.12.82-.14.41-.39.75-.26.34-.61.58-.35.24-.76.36-.41.12-.83.1-.43-.02-.82-.18-.4-.15-.72-.42-.33-.28-.55-.64-.22-.36-.32-.78-.09-.41-.05-.84.04-.42.22-.81.17-.38.46-.69.29-.32.67-.52.37-.2.79-.27.42-.07.84-.01l.42.07 2.1.41q2.1.42 4.66.89 2.57.47 4.15.77 1.58.3 3.26.66 1.68.36 3.73.83t4.19.92q2.13.44 4.3.84 2.16.4 4.51.82 2.35.41 4.64.74 2.3.32 4.66.44 2.36.11 4.86.08 2.5-.04 2.77-.01.28.04.54.14t.49.25q.23.16.42.37.18.21.31.46.13.24.2.51.06.27.06.55t-.06.55q-.07.27-.2.52t-.31.46q-.19.2-.42.36-.23.16-.49.26t-.54.13l-.27.04Z"/><path d="M145.072 303.453q-.002-.003-2.032-.013-2.03 0-3.68.02l-3.29.04q-1.65.02-4.35.35-2.71.32-5.41.81-2.71.48-4.51.87-1.79.39-3.25.75t-4.05.99q-2.6.62-4.29.82-1.69.2-2.04.53-.34.34-.77.55-.43.21-.91.27-.47.06-.94-.04t-.89-.34q-.41-.24-.73-.6-.31-.36-.5-.8-.18-.44-.22-.92-.03-.48.09-.94.12-.47.38-.87t.64-.69q.38-.3.83-.46.45-.16.93-.17.48-.01.94.14.45.14.84.43.39.28.66.67.28.4.41.86.14.46.12.93-.02.48-.19.93-.17.45-.47.82-.31.37-.71.62-.41.26-.88.37-.46.11-.94.07-.48-.05-.92-.24-.43-.2-.79-.52-.35-.32-.58-.74-.23-.42-.32-.9-.08-.47-.01-.94.07-.48.28-.9l.22-.43 3.51-1.28q3.51-1.29 6.02-1.81 2.52-.51 4.01-.85 1.49-.35 3.39-.8 1.91-.45 3.4-.7 1.5-.26 4.35-.58 2.85-.32 4.43-.41 1.57-.09 3.22-.07l3.29.04q1.65.03 3.68.02 2.03-.01 2.34.02.31.04.59.15.29.11.55.29.25.17.46.4.2.23.34.51.15.27.22.57.08.3.08.61t-.08.61q-.07.3-.22.57-.14.28-.34.51-.21.23-.46.4-.26.18-.55.29-.28.11-.59.15l-.31.03Z"/><path d="M144.18 306.398q0 .002-2.09.562t-4 1.23q-1.92.68-4.03 1.62-2.11.94-3.42 1.69-1.3.75-2.98 1.99-1.67 1.24-2.82 1.79-1.15.54-1.28 1.02-.14.48-.41.89-.28.42-.68.72-.39.3-.86.46-.47.16-.97.16t-.97-.16q-.47-.16-.86-.45-.4-.3-.68-.72-.28-.41-.41-.88-.14-.48-.11-.98.02-.49.21-.96.18-.46.5-.84.32-.38.75-.63.42-.26.91-.37.48-.11.98-.05.49.05.94.26.45.2.81.55.36.34.6.77.23.44.31.93.08.49 0 .98-.07.49-.31.93-.23.44-.59.78-.36.35-.81.56-.45.21-.94.26-.5.06-.98-.05-.49-.11-.91-.36-.43-.26-.75-.63-.32-.38-.51-.84-.18-.46-.21-.96l-.03-.5 3.08-3.06q3.07-3.07 4.5-3.93 1.42-.85 3-1.58 1.57-.73 3.94-1.6 2.37-.87 4.45-1.63 2.07-.76 4.15-1.37 2.07-.61 2.38-.66.31-.05.62-.02.31.03.61.13t.56.27q.27.17.48.4.22.23.37.5.16.27.24.57.09.31.1.62.01.31-.06.62-.06.31-.2.59-.14.28-.34.52t-.45.43q-.25.19-.54.31l-.29.12ZM193.943 290.352q-.003-.002 3.087.068 3.09.08 6.55-.12t6.51-.58q3.04-.38 6.13-1.07 3.09-.7 5.84-1.57 2.75-.87 5.18-1.9 2.43-1.03 4.42-2.16 1.98-1.13 3.45-2.08 1.48-.96 3.67-2.41 2.19-1.45 3.76-2.47 1.57-1.01 3.16-1.87 1.58-.85 1.98-.91.39-.05.78.02t.74.27q.35.19.62.49.26.29.42.65.16.37.19.77.04.39-.06.78-.09.39-.3.72-.22.34-.52.59-.31.25-.69.39-.37.14-.77.15-.39.01-.78-.1-.38-.12-.7-.35-.32-.23-.56-.55-.23-.32-.35-.7-.12-.38-.11-.78.01-.4.15-.77.13-.38.38-.69.25-.31.58-.53.34-.21.72-.31.39-.1.78-.07.4.03.77.19.36.16.66.42.3.26.49.61.2.35.28.74.07.39.02.78-.05.4-.22.75-.18.36-.46.64-.28.29-.64.46l-.35.18-1.16.63q-1.15.64-2.73 1.41-1.59.78-3.96 2-2.38 1.23-3.98 2.08-1.61.85-3.79 1.96-2.19 1.11-4.76 2.15-2.57 1.03-5.44 1.97-2.87.93-6.1 1.71-3.24.77-6.39 1.24-3.14.46-6.73.77-3.59.31-6.68.38-3.09.08-3.33.05-.24-.03-.47-.12-.23-.09-.43-.22-.2-.14-.36-.33-.17-.18-.28-.4-.11-.21-.17-.45-.06-.24-.06-.48t.06-.48q.06-.24.17-.46.11-.21.28-.4.16-.18.36-.32.2-.14.43-.22.23-.09.47-.12l.24-.03Z"/><path d="M195.836 291.733q.004-.003 5.504.067t11.83.12q6.34.05 11.83.08 5.5.04 9.63.22 4.12.17 7.27.48 3.15.3 6.14.52 2.99.23 3.26.31.28.08.52.24.23.16.4.4.17.23.26.5t.08.56q0 .29-.1.56-.09.27-.27.49-.17.23-.41.39-.24.16-.52.23t-.57.05q-.28-.02-.55-.13-.26-.11-.48-.3-.21-.18-.36-.43-.14-.25-.2-.53t-.02-.57q.03-.28.15-.54.13-.26.33-.47.2-.2.45-.33.26-.13.54-.18.29-.04.57.01.28.05.53.19.26.14.45.35.19.21.31.47.12.27.15.55.02.29-.04.57-.07.28-.22.52t-.37.43q-.22.18-.49.28-.27.1-.56.11l-.28.02-2.92-.39q-2.92-.39-5.98-.65-3.07-.27-7.13-.39-4.07-.13-9.57-.09-5.49.03-11.83.08-6.33.05-11.83.12-5.5.07-5.74.04-.24-.03-.47-.12-.22-.08-.42-.22-.2-.13-.35-.31-.16-.18-.28-.4-.11-.21-.16-.44-.06-.23-.06-.48 0-.24.06-.47.05-.23.16-.44.12-.22.28-.4.15-.18.35-.31.2-.14.42-.22.23-.09.47-.12l.24-.03Z"/><path d="M190.357 293.064q.003-.004 2.363.226 2.37.23 5.23 1.19 2.86.95 5.18 1.89 2.31.94 5.13 2.38 2.83 1.45 5.89 3.17 3.06 1.71 5.99 3.32 2.94 1.6 5.56 2.94 2.61 1.33 4.92 2.33 2.3.99 3.76 1.5 1.45.51 3.39 1.52 1.94 1 2.1 1.27.17.26.24.56.07.3.05.61-.03.31-.16.6-.12.28-.33.51-.21.23-.48.38t-.58.21q-.3.05-.61.01-.31-.05-.59-.19-.27-.14-.49-.36-.22-.22-.35-.5-.14-.28-.18-.59-.04-.31.02-.61t.22-.57q.15-.27.39-.48.23-.2.52-.32.28-.12.59-.15.31-.02.61.06t.56.25q.26.16.46.41.19.24.29.53.11.3.11.61.01.31-.08.6-.1.3-.28.55-.18.25-.44.43-.25.18-.55.27-.3.09-.61.07-.31-.01-.6-.12t-.53-.3l-.24-.2-1.22-.53q-1.22-.54-2.66-1.23-1.44-.69-3.77-1.78-2.34-1.1-5-2.42-2.67-1.32-5.65-2.87-2.99-1.56-6.02-3.16-3.03-1.6-5.79-2.88-2.77-1.29-4.94-2.21-2.17-.92-4.64-1.71-2.48-.8-4.83-1.06-2.36-.27-2.59-.32-.23-.05-.44-.16-.21-.1-.39-.26-.18-.15-.31-.34-.14-.19-.23-.41-.08-.22-.12-.45-.03-.24-.01-.47.03-.24.11-.46.08-.22.21-.42.13-.19.3-.35.18-.16.38-.27.21-.12.44-.18t.46-.06l.24-.01ZM399.755 446.324q-.005-.004-2.085-1.084-2.09-1.09-3.96-2.35-1.87-1.27-3.48-2.41-1.61-1.13-3.19-2.38-1.57-1.24-3.22-2.68-1.66-1.43-3.22-2.9-1.57-1.47-3.05-2.8-1.49-1.33-2.87-2.62-1.38-1.29-2.57-2.41t-2.3-2.17q-1.1-1.05-3.06-2.91-1.97-1.86-3.27-3.16-1.31-1.3-2.67-2.73-1.36-1.42-2.61-2.89-1.25-1.47-2.44-2.82-1.18-1.35-2.48-2.71-1.29-1.36-2.54-2.55-1.24-1.18-2.32-2.42-1.08-1.24-2.79-.03-1.7 1.21-2.89 2.47-1.19 1.26-2.33 2.8-1.14 1.54-2.21 2.91-1.08 1.37-2.13 2.6-1.04 1.23-2.18 2.43-1.14 1.19-2.77 1.97-1.64.78-3.14.86-1.5.09-3.53-.51t-2.93-2.23q-.91-1.63-.95-3.38-.05-1.74-.05-3.33t.41-3.24q.41-1.65 1.18-3.29.77-1.64 1.56-3.19.8-1.54 1.56-2.86.77-1.32 2.19-2.96 1.42-1.65 2.59-2.8t2.95-2.56q1.78-1.41 3.28-2.71 1.5-1.29 2.82-2.45 1.32-1.16 2.49-2.41 1.17-1.26 2.38-2.27t2.63-2.26q1.42-1.26 2.72-2.6 1.3-1.33 2.66-2.58 1.35-1.26 2.72-2.38 1.37-1.13 2.67-2.25 1.3-1.12 2.75-2.19 1.46-1.06 3.19-2.21 1.74-1.15 3.4-2.13 1.67-.98 3.19-1.7t3.27-1.01q1.75-.3 4.21.45t3.31 2.19q.84 1.44 1.09 3.05.25 1.62-.31 3.46-.57 1.84-1.98 3.02-1.41 1.19-2.62 2.32-1.2 1.13-2.12 2.37-.92 1.25-1.96 2.75t-2.05 2.85q-1.01 1.34-1.49 3t-.18 3.22q.29 1.55 1.2 3.04.92 1.49 1.74 2.78.83 1.3 2.24 3.14 1.42 1.85 2.68 3.33 1.26 1.48 2.57 2.66 1.32 1.19 2.68 2.15 1.37.96 3.06 2.4t3.11 2.53q1.41 1.08 2.79 2.09 1.38 1.01 2.95 2.1 1.57 1.09 3.01 1.97 1.45.89 2.85 1.8 1.39.91 3.4 2.13 2.01 1.22 3.55 2.2 1.54.97 3.1 2.05 1.55 1.08 2.95 2.15 1.4 1.07 2.71 2.42 1.31 1.36 2.29 3.57t1.18 3.74q.21 1.53.23 3.17.03 1.64-.34 3.17-.37 1.52-1.52 2.91-1.16 1.38-2.23 2.47-1.06 1.09-2.24 2.16-1.18 1.07-2.82 1.79-1.64.71-3.39 1.02-1.74.31-3.42.49-1.67.17-5.49-1.84-3.81-2.02-3.96-2.66-.16-.64-.09-1.29.06-.65.32-1.25.27-.6.71-1.08.45-.49 1.02-.8.58-.32 1.22-.43.65-.12 1.29-.02.65.09 1.24.39.58.3 1.04.77.46.47.74 1.06.29.59.37 1.24.08.65-.05 1.29-.14.65-.47 1.21-.32.57-.82 1-.49.43-1.1.69-.6.25-1.26.29-.65.05-1.28-.12-.64-.16-1.19-.52-.54-.36-.95-.88-.4-.52-.62-1.13-.22-.62-.23-1.28-.01-.65.19-1.28.2-.62.59-1.15.39-.53.92-.9.54-.38 1.17-.56.63-.19 1.28-.16.66.02 1.27.26.61.23 1.12.65.51.41.85.97l.35.56.26-.46q.27-.46 1.89-.61 1.62-.15 3.22-1.05t3.1-1.87q1.5-.97 1.48-2.67-.02-1.7-.4-3.36t-1.73-2.89q-1.36-1.22-2.59-2.17-1.22-.96-2.7-2.01-1.47-1.05-3.34-2.17-1.87-1.12-3.38-2.06-1.51-.94-2.85-1.78-1.34-.85-2.97-1.87-1.63-1.03-3.35-2.16-1.72-1.13-3.11-2.17t-3.02-2.3q-1.63-1.27-3.57-2.74-1.95-1.48-3.61-2.89-1.65-1.41-3.03-2.89-1.38-1.47-2.97-3.37-1.58-1.9-2.76-3.58-1.18-1.68-2.12-3.17-.94-1.49-1.67-2.91-.72-1.41-1.17-3.03-.46-1.62-.44-3.38.01-1.75.27-3.43.27-1.68 1.23-3.26.96-1.59 2.18-3.26 1.21-1.67 2.39-3.41 1.17-1.75 2.47-3.3 1.3-1.55 2.74-2.34 1.44-.79-.06.05-1.51.84-2.91 1.65-1.4.81-3.03 1.95-1.64 1.15-2.83 2.1-1.2.96-2.87 2.38-1.67 1.42-3.43 3.18-1.76 1.76-3.16 3.1-1.39 1.33-2.97 2.7-1.58 1.36-2.86 2.7-1.29 1.34-2.61 2.51-1.32 1.16-2.95 2.57-1.64 1.4-3.58 3.07-1.94 1.67-3.34 2.99-1.4 1.32-2.57 3.09-1.18 1.77-2.14 3.64-.96 1.86-1.51 3.46-.56 1.6-1.08 3.02-.51 1.41.66.12t2.16-2.45q.99-1.16 1.97-2.41.99-1.24 2.1-2.72 1.11-1.47 2.37-2.78 1.26-1.3 2.26-2.49 1.01-1.18 2.62-2.11 1.62-.93 3.75-.98 2.14-.04 3.6.56 1.45.6 2.55 1.79 1.1 1.19 2.26 2.44 1.16 1.25 2.18 2.49 1.03 1.24 2.09 2.47 1.07 1.22 1.97 2.43.91 1.21 2.12 2.86 1.22 1.66 2.47 3.13l2.33 2.72q1.07 1.25 2.93 3.2 1.87 1.95 2.91 3.03 1.05 1.08 2.18 2.23 1.12 1.14 2.43 2.42 1.31 1.27 2.82 2.64 1.5 1.37 2.99 2.77 1.5 1.4 3.1 2.78 1.6 1.37 3.05 2.56 1.45 1.19 2.99 2.32 1.55 1.14 3.15 2.25 1.6 1.12 3.71 2.16 2.11 1.03 2.35 1.19.24.16.44.38.19.21.33.46.14.26.21.54.08.28.08.57 0 .29-.06.57-.07.28-.2.54t-.32.48q-.18.22-.42.38-.24.17-.5.28-.27.1-.56.14-.29.04-.57.01-.29-.03-.56-.13l-.28-.1Z"/><path d="m396.863 435.151-1.133-.361q-1.13-.36-2.58-1.53-1.45-1.17-1.92-2.82-.47-1.64-.01-3.12.45-1.49 1.86-2.29 1.4-.8 3.08-1.03 1.67-.23 3.2-.3 1.53-.06 3.43 1.43 1.91 1.49 2.2 3.18.29 1.69-2.9 4.15-3.2 2.47-3.75 2.38-.56-.09-1.06-.36-.49-.26-.88-.67-.39-.41-.62-.92-.24-.51-.3-1.06-.06-.56.06-1.11t.41-1.03q.29-.48.72-.85.43-.36.95-.57.52-.21 1.08-.24t1.1.12q.55.15 1.01.47.47.31.81.76.34.45.52.98t.18 1.09q0 .57-.18 1.1-.18.53-.52.98-.34.45-.81.76-.46.32-1 .47-.55.15-1.11.12t-1.08-.24q-.52-.21-.95-.57-.43-.37-.72-.85t-.41-1.03q-.12-.55-.06-1.11.06-.55.3-1.06.23-.51.62-.92.39-.41.88-.67.5-.27 1.05-.36l.56-.09.25 1.05q.26 1.06-1.23.78t-.42.15q1.07.42 1.35.56.27.13.5.33.24.2.41.45.18.25.3.53.11.28.15.58.05.31.01.61-.03.3-.13.59t-.27.54q-.17.26-.39.46-.23.21-.49.36-.27.15-.57.22-.29.08-.6.09-.3.01-.6-.06l-.3-.07ZM307.987 393.112q.003-.002-1.397-.892-1.4-.9-3.43-2.51-2.04-1.62-3.74-3.42-1.71-1.8-3.05-3.36-1.33-1.55-2.46-3.18-1.13-1.64-2.17-3.07-1.04-1.42-2.11-3.06-1.06-1.64-1.94-2.97-.88-1.34-2.05-3.2-1.17-1.87-2.1-3.52-.94-1.66-1.79-3.17-.84-1.51-1.82-2.97-.97-1.46-1.83-3-.85-1.55-1.6-2.9-.75-1.35-1.26-2.77-.52-1.41-1.18-3.17-.67-1.75-.82-3.57-.14-1.81.48-3.22.63-1.41 2.21-3.2 1.58-1.8 3.04-3.4 1.45-1.6 2.49-2.79 1.04-1.19 2.37-2.44 1.32-1.25 2.8-2.62 1.48-1.37 2.82-2.46 1.35-1.09 2.95-1.92 1.61-.83 3.2-1.06 1.59-.24 3.09-.24 1.51-.01 3.03 0 1.51.01 3.28.57 1.76.56 3.1 1.43 1.34.87 2.79 1.94 1.46 1.08 2.88 2.06t-.52 1.38q-1.94.41-2.42-1.64-.49-2.04-.48-3.84.01-1.81.01-3.71t-.3-3.43q-.3-1.53-.67-3.18-.37-1.65-.39-3.33-.03-1.68.31-3.27.34-1.58 1.44-3.24 1.11-1.66 2.03-3 .92-1.35 2.09-2.45 1.16-1.11 2.47-1.85 1.31-.74 3.05-1.13 1.73-.39 3.7-.41l3.7-.02q1.74 0 4.34.69 2.61.68 4.01 2.31 1.41 1.63 2.39 3.06.99 1.42 2.18 3.06 1.18 1.64 2.11 3.03.93 1.4 1.97 3 1.05 1.61 1.84 2.96.79 1.35 2.06 3.12 1.28 1.78 2.16 3.11.88 1.33 1.8 2.98.92 1.66 1.95 3.13 1.02 1.48 1.68 2.86.67 1.38 1.4 2.83.72 1.44 1.71 3.22.98 1.77 1.55 3.17.57 1.4 1.23 3.18.66 1.78 1.12 3.43.46 1.66.61 3.41.16 1.74.17 3.3.01 1.56-.5 3.16-.52 1.61-1.78 3.09-1.26 1.48-2.97 3.18-1.7 1.71-3.16 2.9-1.47 1.19-3.41 2.66-1.95 1.46-3.48 2.52-1.53 1.05-3.31 2.18-1.77 1.13-3.39 2.24-1.63 1.12-3.08 2.21-1.46 1.1-2.99 2.25-1.53 1.15-3.22 2.43-1.7 1.27-3.34 2.63-1.65 1.37-3.09 2.4-1.44 1.04-3.06 2.3-1.63 1.26-2.91 2.39-1.29 1.14-2.74 2.62-1.44 1.49-3.17 2.28-1.72.8-4.62.46-2.89-.34-3.36-.77-.48-.42-.8-.97-.32-.55-.44-1.17-.13-.63-.05-1.26t.36-1.2q.28-.57.73-1.03.44-.45 1.01-.74.57-.28 1.2-.38.63-.09 1.25.03.63.11 1.18.42.56.31.99.78.43.47.68 1.05.26.58.32 1.22.05.63-.09 1.25-.15.62-.49 1.16-.34.54-.83.94-.49.4-1.09.63-.59.22-1.23.24-.64.02-1.25-.16-.6-.18-1.12-.55-.52-.36-.9-.88-.38-.51-.57-1.12-.19-.6-.18-1.24.02-.63.23-1.23.21-.6.61-1.1.39-.5.93-.85.53-.35 1.15-.5.61-.16 1.25-.12.63.05 1.22.3l.58.24.63-.58q.63-.59 1.97-1.97 1.33-1.37 2.75-2.54t2.8-2.2q1.38-1.03 3.08-2.33 1.69-1.3 3.08-2.44 1.39-1.15 2.6-2.1 1.22-.95 2.55-1.9 1.33-.94 2.55-1.87 1.22-.93 2.82-1.94 1.59-1.02 3.45-2.39 1.85-1.37 3.33-2.38 1.48-1.01 2.76-1.97 1.28-.96 3.1-2.41 1.81-1.46 3.4-3.12 1.59-1.66 2.71-3.42 1.12-1.75 1.01-3.26-.12-1.51-.42-2.99-.3-1.49-.92-3.13-.62-1.64-1.32-3.3-.71-1.66-1.63-3.31-.92-1.65-1.56-3.09-.63-1.43-1.48-2.85-.85-1.42-1.82-3.02-.97-1.59-1.85-3.02-.88-1.42-2-2.87-1.11-1.44-2.23-3.23-1.13-1.78-2.05-3.21-.93-1.42-2-2.98-1.07-1.57-2.24-3.14-1.17-1.57-2.07-3.61-.9-2.04-2.41-2.05-1.5-.01-3.16 0-1.67.02-3.46.26-1.79.24-2.92 1.35-1.12 1.11-2.1 2.28-.97 1.17-1.07 2.8-.1 1.64.37 3.2.47 1.56.72 3.48.26 1.92.25 3.82 0 1.9.01 3.71l.02 3.67q.02 1.88-.11 4.02-.13 2.15-1.83 3.42-1.7 1.27-3.82.92t-3.37-1.19q-1.24-.84-2.55-1.83-1.3-.99-2.95-1.89-1.64-.9-3.43-.9-1.79 0-3.47.32-1.69.32-3.07 1.4-1.38 1.09-2.73 2.31-1.34 1.21-2.42 2.29-1.07 1.08-2.25 2.4-1.17 1.32-2.18 2.48-1 1.16-2.18 2.62-1.17 1.45-.69 2.97.47 1.52 1.07 2.9l1.32 3.01q.72 1.65 1.48 2.98.75 1.34 1.7 2.96.95 1.62 1.6 3 .65 1.38 1.46 2.79l1.58 2.72q.75 1.31 1.66 2.8.9 1.48 1.8 2.98.9 1.51 1.98 3.12t1.92 2.99q.85 1.39 2.04 2.93 1.19 1.54 2.57 3.16t3 3.07q1.62 1.45 3 2.37 1.39.92 1.63 1.13.25.2.44.46t.31.56q.12.3.17.62.05.32.02.64-.03.32-.14.62-.11.3-.28.57-.18.27-.41.49-.24.22-.52.38t-.59.24q-.31.09-.63.1-.33 0-.64-.06-.32-.07-.6-.22l-.29-.14ZM304.863 75.375q-.003.005.017 1.675.01 1.67.03 3.31.02 1.63.05 4.68.04 3.05.07 6.02.03 2.97.07 5.61.04 2.65-.03 4.72-.08 2.08-.03 4.13.04 2.06.1 3.59.05 1.53.1 3.13.05 1.6.09 3.28.04 1.69.33 3.4.29 1.71.69 3.32.4 1.62.8 3.07.39 1.45 1.03 2.95.64 1.49 1.65 3.37 1 1.89 1.9 3.12.9 1.23 2.09 2.99l2.35 3.45q1.15 1.7 2.17 2.87 1.01 1.17 2.54 2.6 1.52 1.44 2.96 2.57 1.43 1.13 2.89 1.9 1.45.77 3.06 1.03 1.6.26 3.29.39 1.7.12 3.34.19 1.65.06 3.38.08l3.54.04q1.82.01 3.49-.16 1.67-.17 3.15-.82 1.47-.65 3.07-1.66 1.59-1.01 3.28-2.22 1.69-1.21 3.11-2.45 1.42-1.24 2.49-2.4 1.06-1.15 2.24-2.58 1.18-1.42 2.48-3.02 1.31-1.6 2.38-2.88 1.07-1.29 2-2.59.93-1.29 1.68-2.92.76-1.62 1.12-3.69.37-2.06.45-4.07.07-2 .1-3.93l.06-3.98q.03-2.05.05-4.01.01-1.96-.06-3.67-.07-1.72-.37-3.34-.31-1.62-.75-3.83t-.83-3.7q-.39-1.48-.79-3.01-.4-1.52-.84-3.13-.44-1.62-.99-3.39t-1.25-3.85q-.71-2.08-1.36-3.89-.66-1.81-1.24-3.53-.58-1.71-.45-1.23.14.48-.05.05-.2-.43-.29-.9-.09-.46-.06-.93.02-.48.16-.93.14-.45.38-.86t.58-.74q.33-.34.73-.59.41-.24.86-.39.45-.14.92-.17.47-.03.94.05t.9.27q.43.19.81.48.37.29.66.66.3.37.07 2.72-.22 2.35-1.06 4.29-.83 1.93-1.51 3.58-.68 1.64-1.49 3.34-.81 1.69-1.47 3.13-.67 1.43-1.41 2.88-.74 1.44-2.35 2.35-1.61.91-3.8.81-2.19-.1-4.46-.39-2.27-.3-4.47-.65-2.19-.35-3.96-.53-1.77-.19-3.39-.25t-3.2-.07q-1.58-.01-3.64-.1-2.07-.09-3.63-.11-1.55-.02-3.31 0t-3.29.05q-1.53.04-3.69-.26-2.17-.3-4.4-1.31-2.23-1.01-3.24-2.24-1-1.24-2.24-2.59-1.23-1.35-2.35-2.63-1.11-1.28-2.33-2.91-1.22-1.62-2.23-3.22-1-1.59 1.04-2.6 2.04-1.02 1.93-.38-.1.64-.41 1.21-.31.57-.78 1.02-.47.44-1.06.71-.59.27-1.24.33-.64.07-1.28-.07-.63-.15-1.18-.48-.56-.34-.97-.84-.42-.49-.66-1.1-.23-.6-.26-1.25-.04-.65.14-1.27.18-.62.55-1.16.36-.53.88-.92t1.14-.59q.61-.21 1.26-.2.65 0 1.26.21t1.13.61q.51.39.87.93t.53 1.17q.17.62.13 1.27-.04.65-.28 1.25-.24.6-.67 1.09-.42.49-.98.82-.55.33-1.19.47-.63.13-1.28.06-.64-.07-1.23-.35-.58-.28-1.05-.72-.47-.45-.77-1.03-.3-.57-.4-1.21l-.1-.64 4.37-1.97q4.38-1.96 5.57-.64 1.2 1.32 2.13 2.73.92 1.42 2.05 2.78 1.12 1.36 2.1 2.53.99 1.17 2.25 2.48 1.26 1.3 2.61 2.24 1.34.95 2.85.99l3.04.06 3.08.06q1.55.03 3.34.17 1.79.15 3.86.17 2.07.01 3.9.04 1.82.02 3.59.18 1.77.15 3.89.36 2.11.22 4.28.45 2.16.24 3.83.57 1.67.33 2.43-1.29.76-1.62 1.44-3.11.68-1.49 1.35-3.29t1.31-3.36q.63-1.55 1.57-3.05.94-1.49.74.83-.2 2.32-.39 1.89-.2-.43-.29-.9-.09-.46-.06-.93.02-.48.16-.93.14-.45.38-.86.24-.4.58-.74.33-.34.73-.59.41-.24.86-.39.45-.14.92-.17.47-.03.94.05.46.08.9.27.43.19.81.48.37.29.66.66.3.37.49.95.18.58.77 2.36.59 1.77 1.14 3.34.56 1.56 1.09 3.23.52 1.66 1.07 3.53.55 1.87.96 3.5.41 1.63.85 3.49.44 1.85.93 3.73.49 1.88.95 3.96.46 2.09.88 4.24.42 2.15.53 4.22.11 2.07.13 4.02.01 1.96.04 4.02l.04 4.02q.02 1.97-.01 3.7-.03 1.74-.34 3.97-.32 2.23-.71 3.83-.4 1.61-1.03 3.06-.63 1.46-1.72 2.97-1.09 1.51-2.39 3.07-1.31 1.57-2.59 3.22-1.27 1.66-2.36 2.85-1.09 1.19-2.28 2.64-1.18 1.45-2.53 2.82-1.36 1.37-2.93 2.64t-2.91 2.2q-1.34.93-2.74 1.82-1.4.88-2.89 1.62-1.5.75-3.06 1.33-1.56.59-3.17.81-1.62.23-3.42.24-1.81.01-3.44.01-1.62 0-3.55-.01-1.92-.01-3.62-.13-1.69-.12-3.29-.18t-3.14-.4q-1.55-.35-2.93-.96-1.38-.61-2.69-1.36-1.31-.75-2.73-1.81t-2.85-2.38q-1.43-1.32-2.55-2.63-1.13-1.3-2.14-2.54-1.01-1.24-1.95-2.68-.95-1.44-2.11-3.19-1.16-1.76-2.25-3.28-1.08-1.51-1.99-3.09-.91-1.58-1.7-3.6-.79-2.01-1.24-3.45-.45-1.44-.87-2.9t-.68-3.43q-.26-1.97-.46-4.1-.2-2.12-.15-3.78.04-1.65.1-3.31.05-1.66.11-3.23l.14-3.12q.07-1.54.25-3.49.18-1.95.22-4.6.04-2.64.07-5.61.03-2.97.07-6.02.04-3.05.05-4.68.02-1.64.03-3.31.02-1.67.06-1.99.04-.31.15-.61.11-.29.29-.55.18-.26.42-.47.23-.21.51-.36t.59-.22q.31-.08.62-.08.32 0 .62.08.31.07.59.22.28.15.52.36.23.21.41.47.18.26.29.55.12.3.15.61l.04.32Z"/><path d="M337.412 130.819q-.002.001.038 1.171.05 1.16.46 2.66.42 1.5 2.03 1.97 1.61.48 2.53-1.69.91-2.17 1.01-2.74.1-.56.37-1.07.27-.5.69-.89.42-.39.94-.63t1.09-.29q.57-.06 1.13.07.56.13 1.05.42.49.3.86.74.36.44.57.98.21.53.24 1.1.02.58-.14 1.13-.15.55-.48 1.02-.32.47-.78.82-.46.34-1.01.52-.54.18-1.12.17-.57 0-1.11-.19-.54-.19-.99-.54-.46-.35-.78-.83-.31-.47-.46-1.03-.15-.55-.12-1.12.04-.57.26-1.1.21-.54.59-.97.37-.43.87-.72.49-.3 1.05-.41.56-.12 1.13-.06.57.07 1.09.32.52.24.93.64.41.4.68.9.26.51.35 1.08l.09.56-.66 3.13q-.66 3.13-1.49 4.61-.83 1.48-2.81 2.43-1.98.95-3.57.73-1.6-.22-3.19-.79-1.59-.57-2.8-1.46-1.22-.89-2.31-2.65-1.1-1.76-1.25-3.71-.15-1.95-.11-3.11.04-1.17.08-1.48.03-.3.14-.59.11-.28.29-.54.17-.25.4-.45.23-.21.5-.35.27-.14.57-.21.3-.08.61-.08.3 0 .6.08.3.07.57.21.27.14.5.35.23.2.41.45.17.26.28.54.11.29.14.59l.04.31ZM322.491 112.535q-.001-.005.059-.365t.23-.69q.17-.32.44-.57.27-.25.6-.41.33-.15.7-.19.37-.04.72.04.36.08.68.26.31.19.55.47.24.28.37.63.14.34.16.7.02.37-.08.72-.1.36-.3.66-.21.31-.5.53-.29.22-.64.34-.35.12-.72.12t-.71-.12q-.35-.12-.64-.34-.3-.22-.5-.53-.21-.3-.31-.66-.1-.35-.08-.72.02-.36.16-.71.14-.34.37-.62.24-.28.56-.47.31-.19.67-.26.36-.08.73-.04.36.04.69.19.34.16.6.41.27.25.44.58.17.32.23.68l.06.37-.01.27q-.02.27-.1.53-.08.27-.22.5-.15.24-.34.43-.19.19-.43.34-.23.14-.49.22-.27.08-.54.1-.27.02-.54-.03t-.52-.16q-.25-.12-.47-.29-.21-.16-.38-.38t-.29-.47q-.11-.25-.16-.52t-.05-.41ZM351.842 110.269q-.002.001.218.311.23.31.34.67.11.36.1.74-.01.38-.14.74t-.37.66q-.24.29-.56.5-.32.2-.69.29-.37.1-.75.06-.38-.03-.73-.18t-.63-.4q-.28-.26-.47-.59-.19-.33-.26-.7-.07-.37-.02-.75t.22-.72q.17-.34.44-.61.27-.27.61-.44.34-.17.72-.22.37-.05.75.02.37.07.7.26.33.19.59.47.25.29.4.63.15.35.18.73t-.06.75q-.09.37-.3.69-.2.32-.5.56-.29.24-.65.37-.36.13-.74.14-.38.01-.74-.1-.37-.11-.68-.33l-.3-.23-.26-.16q-.25-.16-.45-.38-.21-.22-.36-.48-.14-.26-.23-.55-.08-.29-.09-.59 0-.3.06-.59t.19-.56q.13-.27.33-.5.19-.23.43-.41.24-.18.52-.3.27-.11.57-.16.3-.04.6-.01.29.02.58.12.28.1.86.67ZM323.867 126.465q.003-.005-2.937-.105-2.93-.11-5.71-.17-2.78-.05-5.34-.06-2.57-.02-4.46.03-1.88.05-3.9.09-2.02.03-3.8.08-1.78.04-3.32.09-1.54.05-3.97.14-2.43.1-5.31.16-2.89.07-3.32 0-.43-.08-.81-.28-.39-.2-.69-.52-.3-.32-.48-.71-.18-.4-.23-.83-.05-.43.05-.86.09-.42.32-.8.22-.37.55-.65.34-.28.74-.44.4-.17.84-.19.43-.02.85.09.42.12.78.36.36.25.63.6.26.34.4.76.14.41.14.84 0 .44-.14.85-.14.42-.4.76-.27.35-.63.59-.36.25-.78.36-.42.12-.85.1-.44-.03-.84-.19-.41-.16-.74-.44t-.55-.66q-.23-.37-.32-.8-.1-.42-.05-.85.05-.44.23-.83.18-.4.48-.71.3-.32.69-.52.38-.21.81-.28l.43-.07 2.89.07q2.88.06 5.31.16 2.43.09 3.97.14 1.54.05 3.32.09 1.78.05 3.8.08 2.02.03 3.9.08 1.89.05 4.46.04 2.56-.01 5.34-.07 2.78-.05 5.71-.16 2.94-.11 3.22-.07.28.03.55.13t.5.27q.24.16.43.37.19.22.32.47.13.25.2.53t.07.56q0 .29-.07.57-.07.27-.2.53-.13.25-.32.46-.19.22-.43.38-.23.16-.5.26-.27.11-.55.14l-.28.03Z"/><path d="M325.257 129.214q.003-.004-2.237.026-2.23.03-5.01.11t-6.34.61q-3.56.53-7.5 1.54-3.93 1.01-7.91 2.1-3.97 1.08-7.09 1.99-3.11.9-5.82 1.66-2.72.75-5.8 1.67-3.08.92-3.38.95-.29.03-.58-.04-.29-.06-.54-.22-.25-.15-.44-.38t-.29-.5q-.11-.28-.12-.58-.01-.29.07-.57.08-.29.25-.53.17-.24.41-.42.23-.18.52-.27.28-.09.57-.08.3 0 .58.1.27.1.51.28.23.18.39.43.17.24.24.53.08.28.06.58-.02.29-.13.57-.12.27-.31.49-.2.23-.45.37-.26.15-.55.21-.28.06-.58.03-.29-.04-.56-.17-.26-.12-.48-.33-.21-.2-.34-.47-.14-.26-.18-.55-.05-.29 0-.59.06-.29.2-.55.14-.25.36-.46.21-.2.48-.32l.27-.12 3.12-.74q3.11-.74 5.8-1.46 2.68-.73 5.81-1.69 3.12-.95 7.1-2.11 3.98-1.15 8.07-2.29 4.09-1.14 7.85-1.81 3.77-.67 6.64-.85 2.87-.18 5.1-.15 2.24.03 2.48.06.23.03.46.11.22.09.42.22.2.14.35.32.16.18.27.39.12.21.17.44.06.24.06.48t-.06.47q-.05.23-.17.44-.11.22-.27.4-.15.17-.35.31-.2.14-.42.22-.23.09-.47.12l-.23.02Z"/><path d="M325.29 129.573q0-.003-2.62.337-2.63.33-5.63 1.28-3.01.95-6.63 2.57-3.62 1.62-7.48 3.38-3.85 1.76-7.79 3.72-3.94 1.97-7.06 3.51-3.12 1.55-5.85 2.91-2.73 1.37-6.2 3.06t-3.75 1.77q-.27.08-.55.06-.29-.02-.55-.12-.26-.11-.48-.29-.22-.19-.36-.43-.15-.24-.21-.52t-.03-.56q.03-.28.15-.54t.32-.46q.19-.21.44-.34.25-.13.53-.18.29-.04.57 0 .28.05.53.18.25.14.44.34.2.21.32.47.11.25.14.54.03.28-.03.56-.06.27-.21.52-.14.24-.36.42-.22.19-.48.29-.26.1-.55.12-.28.01-.55-.06-.28-.08-.51-.24-.24-.16-.41-.38-.17-.23-.26-.5t-.09-.55q0-.29.09-.56.09-.26.27-.49.17-.23.4-.38l.24-.16 3.5-1.49q3.51-1.49 6.23-2.88 2.72-1.38 5.83-2.95 3.1-1.58 7.07-3.6t7.81-3.83q3.84-1.82 7.61-3.58 3.78-1.77 7.09-2.9 3.32-1.13 5.94-1.48 2.63-.34 2.86-.34.23 0 .45.05.23.05.43.16.21.1.38.25t.3.34q.13.19.22.4.08.22.11.44.03.23 0 .46-.02.23-.1.44-.08.22-.21.41-.13.19-.3.34-.17.15-.37.26-.21.11-.43.17l-.22.05ZM360.825 117.718q.005.002 4.485.082 4.49.08 9.07.14 4.58.06 8.1.1 3.52.04 6.22.03 2.7-.01 5.56-.09 2.86-.08 3.16-.03.31.05.58.19.27.15.48.37.21.22.34.5.13.28.17.59.03.31-.04.61-.06.3-.22.56-.16.27-.4.47-.23.2-.52.31-.28.12-.59.13-.31.02-.61-.06-.29-.09-.55-.26-.25-.17-.44-.42-.19-.24-.29-.54-.09-.29-.09-.6 0-.3.09-.6.1-.29.29-.53.19-.25.44-.42.26-.18.55-.26.3-.08.61-.06.31.01.59.13.29.11.52.31.24.2.4.47.16.26.22.56.07.3.04.61-.04.3-.17.58-.13.28-.34.51-.21.22-.48.37-.28.14-.58.19l-.3.05-2.86-.08q-2.86-.08-5.56-.09-2.7-.01-6.22.03-3.52.04-8.1.1-4.58.06-9.07.14-4.48.08-4.73.05t-.49-.12q-.23-.09-.44-.23t-.38-.33q-.16-.19-.28-.41-.12-.23-.18-.47-.06-.24-.06-.5 0-.25.06-.49.06-.25.18-.47.12-.22.28-.41.17-.19.38-.33t.44-.23q.24-.09.49-.12l.25-.03Z"/><path d="M356.92 118.924q0-.004 3.12.076 3.11.07 7.03.69 3.92.61 8.12 1.88 4.21 1.27 7.6 2.46 3.39 1.2 6.87 2.7 3.47 1.5 6.49 2.52 3.01 1.01 3.25 1.16.24.14.42.35.18.22.28.47.11.26.12.54.02.28-.06.55-.07.26-.23.49-.16.23-.38.4t-.48.26q-.27.09-.54.09-.28 0-.55-.09-.26-.09-.48-.26-.22-.17-.38-.4-.15-.23-.23-.5-.07-.26-.06-.54.02-.28.12-.54.1-.26.28-.47.18-.21.42-.35.24-.15.51-.21t.55-.03q.28.03.53.15t.45.31q.21.19.34.44.13.24.17.52.05.27 0 .55-.04.27-.18.52-.13.24-.33.43-.2.2-.45.31-.26.12-.53.15-.28.03-.55-.03l-.27-.06-3.01-1.13q-3.01-1.14-6.39-2.56-3.38-1.42-6.72-2.54-3.33-1.12-7.32-2.25-3.98-1.14-7.64-1.63-3.67-.48-6.78-.41-3.11.08-3.36.05-.24-.03-.47-.12-.23-.09-.43-.23-.21-.14-.37-.32-.16-.19-.28-.4-.11-.22-.17-.46-.06-.24-.06-.49t.06-.49q.06-.23.17-.45.12-.22.28-.41.16-.18.37-.32.2-.14.43-.23.23-.09.48-.12l.24-.03Z"/><path d="M359.764 120.246q-.004.004 2.856 1.454t5.86 3.11q3 1.67 6.07 3.42 3.07 1.76 5.39 3.06 2.32 1.29 4.16 2.31 1.84 1.03 4.63 2.3 2.79 1.26 3.07 1.46.29.2.49.47.21.28.31.61.11.33.11.67-.01.35-.12.67-.11.33-.33.6-.21.27-.49.46-.29.19-.62.28-.34.09-.68.07-.35-.03-.66-.16-.32-.13-.58-.35-.26-.23-.44-.53-.17-.29-.24-.63-.07-.34-.03-.68.04-.34.19-.65.14-.32.38-.56.24-.25.55-.41.31-.16.65-.21.34-.05.68.01.34.06.64.22.3.17.54.42.23.25.37.57.14.31.18.65.03.35-.05.68-.07.34-.26.63-.18.3-.44.52-.27.22-.59.34-.32.12-.66.14-.35.01-.68-.08l-.33-.1-1.54-.74q-1.54-.74-2.85-1.55t-3.05-1.91q-1.75-1.11-4.05-2.41-2.29-1.31-5.38-2.96t-6.07-3.15q-2.98-1.49-5.93-2.77-2.94-1.27-3.16-1.41-.23-.15-.41-.34-.19-.19-.32-.42-.14-.23-.21-.48-.08-.26-.09-.53-.01-.26.04-.52.05-.27.17-.51.11-.24.28-.44.17-.21.38-.37t.46-.27q.24-.1.5-.15.27-.04.53-.02.27.02.52.1l.25.09ZM108.298 446.856l-.438-1.446q-.44-1.44-.96-2.97-.52-1.54-.78-3.42t-.34-3.51q-.09-1.62.57-3.29.66-1.67 1.72-3.01 1.06-1.34 2.27-2.38 1.22-1.04 2.7-1.65 1.48-.62 3.45-.97 1.97-.36 4.02-.31 2.05.06 3.79.77 1.73.72 3.37 2.01 1.64 1.29 2.69 2.7 1.04 1.41 1.78 2.88t1.14 2.95q.39 1.48.58 3.13.2 1.66-.29 3.84-.48 2.19-1.87 3.71-1.4 1.53-3.18 2.6-1.78 1.06-3.55 1.61-1.78.55-3.36.64-1.58.1-3.18.12-1.6.01-5.23-2.37-3.63-2.38-3.85-2.99-.21-.61-.23-1.25-.01-.65.19-1.27t.58-1.14q.38-.52.91-.9.53-.37 1.15-.55.62-.19 1.27-.16.65.02 1.26.25.6.23 1.1.64.5.41.85.96.34.55.49 1.18.15.63.09 1.27-.06.65-.32 1.24-.26.6-.7 1.07-.43.48-1 .8-.57.31-1.21.42-.63.12-1.27.03-.65-.1-1.22-.39-.58-.29-1.04-.76-.45-.46-.73-1.04-.28-.59-.36-1.23-.09-.64.04-1.28.13-.63.45-1.19.33-.56.82-.99.48-.43 1.08-.68.6-.25 1.24-.3.65-.04 1.28.12t1.17.52q.54.35.94.86l.4.51.38.34q.38.35 1.95.36 1.57.01 3.25-.3 1.67-.3 2.95-1.75 1.28-1.44 1-3.05-.29-1.61-1.01-2.99-.72-1.39-1.95-2.44-1.24-1.05-2.79-1.28-1.55-.23-3.25.01-1.69.25-2.91 1.23-1.21.98-1.8 2.37-.59 1.38-.61 3.03-.01 1.64.36 3.2.38 1.56.76 3.01.39 1.46.43 1.77.05.31.03.62-.03.31-.13.61t-.27.56q-.17.26-.4.48-.23.21-.5.37-.27.15-.57.24-.3.09-.62.1-.31.01-.61-.06-.31-.06-.59-.2-.28-.13-.53-.33-.24-.2-.42-.46-.19-.25-.31-.54l-.12-.28Z"/><path d="M89.234 403.802q-.004-.002 1.866-.482 1.87-.49 3.38-.83 1.51-.35 3.89-1.02 2.38-.68 4.7-1.17 2.32-.5 4.09-.68 1.76-.19 3.72-.28 1.95-.09 3.6-.16 1.64-.07 3.42-.13 1.77-.06 3.93-.01 2.16.04 3.71.48 1.55.43 3.03 1.13 1.48.7 2.96 1.59 1.48.9 2.66 1.86 1.17.96 2.38 2.12 1.2 1.16 1.98 2.51.77 1.35 1.52 3.1.75 1.76 1.21 3.47.46 1.71.63 3.36.18 1.65.33 3.49.15 1.85.16 3.64.01 1.8-.09 3.7-.1 1.9-.73 3.54-.63 1.64-3.14 4.19-2.51 2.56-3.16 2.55-.65 0-1.26-.21t-1.13-.6q-.52-.4-.88-.94-.36-.54-.53-1.17-.17-.62-.13-1.27.03-.65.28-1.25.24-.6.66-1.1.43-.49.99-.82.55-.33 1.19-.47.63-.14 1.28-.06.64.07 1.23.34.59.28 1.06.73.47.45.77 1.02.3.58.41 1.22.1.64-.01 1.28t-.42 1.21q-.3.58-.78 1.02-.47.45-1.06.72-.59.27-1.24.33-.64.07-1.28-.07-.63-.15-1.19-.48-.55-.34-.97-.84-.42-.49-.66-1.1-.23-.6-.27-1.25-.03-.65.15-1.28.18-.62.54-1.16.37-.53.89-.92t1.14-.6l.61-.2-.1-1.37q-.1-1.38-.09-3.06.01-1.69.04-3.27.03-1.57-.25-3.76-.29-2.19-.84-4.19-.55-1.99-1.65-3.59-1.11-1.61-2.22-2.67-1.11-1.06-2.61-2.02-1.5-.97-2.99-1.5-1.5-.53-3.32-.58-1.83-.05-3.55-.11-1.73-.06-3.54-.13-1.81-.06-3.79-.09t-3.79.16q-1.8.18-4.01.66-2.21.48-4.93 1.04-2.72.56-4.59 1.06-1.86.5-2.18.54-.31.04-.63.01t-.62-.14q-.3-.11-.56-.29-.27-.18-.49-.41-.21-.24-.36-.52-.16-.28-.24-.59-.08-.31-.08-.63-.01-.32.06-.63.08-.31.22-.59.14-.29.35-.53.21-.24.47-.43.26-.18.56-.3l.29-.12Z"/><path d="m111.372 445.519-1.662.021q-1.67.01-3.32.16t-3.39.41q-1.74.26-3.31.36-1.58.1-3.15.17-1.57.07-3.18-.16-1.6-.23-3.59-1.45-1.99-1.23-3.28-2.46-1.3-1.22-2.11-2.74-.81-1.52-2.19-.54-1.38.99-3.03 1.34-1.65.35-3.52.74-1.86.38-3.41.7-1.56.32-3.53.57-1.97.25-3.7.45-1.73.2-3.39.37-1.66.17-3.39-.59-1.72-.77-2.22-2.22-.5-1.45-.65-3.06-.15-1.61-.32-3.27-.16-1.65-.15-3.42.02-1.77.63-3.17.62-1.39 2.09-2.23 1.47-.83 3.19-1.3 1.71-.47 3.38-1.1 1.67-.62 3.59-1.27 1.92-.66 4-1.32 2.07-.67 3.67-1.07 1.6-.39 3.02-.91 1.43-.51.27.79t-.61-.14q.54-1.43 1.45-2.76.9-1.32 1.94-2.42 1.04-1.11 2.3-2.43 1.26-1.33 2.27-2.48t2.07-2.25q1.06-1.11 3.02-2.81t2.6-1.87q.63-.17 1.29-.13.65.04 1.26.29.61.25 1.11.68.49.43.83.99.33.57.46 1.21.14.65.06 1.3-.07.65-.35 1.24-.29.6-.74 1.07-.46.47-1.04.77-.58.31-1.23.41-.65.1-1.3-.01-.64-.12-1.22-.43t-1.02-.79q-.45-.48-.72-1.08-.27-.6-.34-1.25-.06-.66.08-1.3.15-.64.49-1.19.35-.56.85-.99.51-.42 1.12-.65.61-.24 1.26-.27.66-.03 1.29.15t1.17.56q.54.37.94.89.39.53.59 1.15.21.63.2 1.29-.01.65-.22 1.27-.22.62-.62 1.14-.4.52-.95.88l-.54.37-.63.73q-.64.74-1.78 1.87-1.14 1.14-2.22 2.35-1.09 1.21-2.17 2.32-1.07 1.11-2.18 2.38-1.11 1.27-1.98 2.97-.87 1.71-3.05 2.79-2.18 1.09-3.83 1.52-1.65.43-3.2.94-1.54.51-3.56 1.22t-3.77 1.4q-1.75.7-3.54.81-1.79.11-1.85 1.66-.06 1.55.14 3.71.2 2.15-1.36.9-1.57-1.26-.06-1.36 1.52-.11 3.11-.27 1.59-.15 3.11-.35 1.52-.2 3.07-.52l3.2-.68q1.65-.35 3.58-.79 1.92-.45 3.46-.79 1.53-.35 3.14-.58 1.61-.24 3.22.89 1.6 1.12 2.86 3.09 1.26 1.97 2.58 3.05 1.31 1.08 2.88 1.21 1.57.14 3.38.2 1.81.06 3.47-.03 1.65-.08 3.6-.1 1.95-.01 3.62 0 1.66.02 1.98.06.31.04.6.15.3.11.56.29.26.18.47.41.2.24.35.52.15.28.22.58.08.31.08.62 0 .32-.08.63-.07.3-.22.58-.15.28-.35.52-.21.23-.47.41-.26.18-.56.29-.29.11-.6.15l-.32.04Z"/><path d="m87.11 419.496.04 1.264q.04 1.27.19 2.88.15 1.6.52 3.21.37 1.6.74 3.16.38 1.56.41 2.05.04.49-.09.97-.12.47-.39.88-.27.41-.66.72-.39.3-.85.46-.47.17-.96.17-.49.01-.96-.14-.47-.15-.86-.44-.4-.29-.68-.7-.28-.4-.42-.87-.14-.47-.12-.97.02-.49.2-.95.17-.46.49-.84.31-.38.73-.63.41-.26.89-.38.48-.11.97-.06.49.04.94.24.45.2.81.54.36.33.6.76t.32.92q.09.48.02.97-.08.49-.3.92-.23.44-.58.78-.35.35-.79.56-.45.21-.94.27-.48.06-.97-.04-.48-.1-.9-.34-.43-.25-.75-.62t-.51-.83l-.19-.45-.35-1.88q-.36-1.89-.6-3.43-.24-1.54-.24-3.58.01-2.04.05-3.31.04-1.26.07-1.57.04-.31.15-.6.11-.29.29-.55.17-.25.41-.46.23-.2.5-.35.28-.14.58-.22.3-.07.61-.07t.61.07q.31.08.58.22.28.15.51.35.23.21.41.46.17.26.28.55.11.29.15.6l.04.31ZM279.39 229.543l.02 1.647q.01 1.64.43 3.18.42 1.54 1.59 3 1.18 1.45 2.82 2.29 1.64.83 3.26.88 1.62.05.81-1.31t-1.01-1.66q-.2-.3-.48-.65-.29-.34-.48-.75t-.27-.85q-.09-.44-.07-.89.02-.44.15-.87.12-.43.35-.82.23-.39.54-.71.31-.32.69-.56.38-.24.81-.38.42-.14.87-.17.45-.04.89.04.44.07.86.25.41.18.76.45.36.27-2.25 2.95-2.62 2.68-2.9 2.34-.28-.35-.47-.76-.19-.4-.28-.84-.08-.44-.06-.89.02-.45.14-.88.13-.43.36-.81.22-.39.53-.71.32-.32.7-.56.38-.24.8-.38.43-.14.87-.17.45-.03.89.04t.86.25q.41.18.76.45.36.27 1.97 1.05 1.61.78 3.31.95 1.71.17.57-1.51-1.13-1.67-1.92-3.02-.78-1.35-1.53-2.78-.76-1.44-1.29-2.33-.53-.89-1.12-1.08-.59-.18-1.09-.55-.5-.36-.86-.86-.35-.51-.53-1.1-.18-.59-.16-1.21.02-.61.24-1.19.21-.58.6-1.06.39-.48.91-.81.53-.33 1.13-.47.6-.15 1.21-.1.62.06 1.18.31.57.24 1.03.66.45.41.75.95t.42 1.15q.11.61.02 1.22-.08.61-.36 1.16-.28.55-.72.99-.44.43-.99.7-.56.27-1.17.35-.61.08-1.22-.04-.6-.12-1.14-.42-.53-.31-.94-.77-.41-.47-.65-1.03-.25-.57-.29-1.19-.05-.61.1-1.21.16-.6.49-1.12.34-.52.82-.9.48-.39 1.07-.6.58-.21 1.19-.22l.62-.01 2.81 2.11q2.82 2.12 3.74 3.54.92 1.41 1.74 2.92.82 1.5 1.6 2.97.77 1.46 1.54 3.2.77 1.73.98 4.23.22 2.49-.44 4.08-.67 1.58-2.87 2.21-2.21.62-4.02.54-1.81-.08-3.56-.36-1.74-.28-3.21-.81-1.46-.53-3.12-1.73-1.66-1.21-1.94-1.55-.28-.35-.47-.76-.19-.4-.28-.84-.08-.44-.06-.89.02-.45.14-.88.13-.43.36-.81.22-.39.53-.71.32-.32.7-.56.38-.24.8-.38.43-.14.87-.17.45-.03.89.04t.86.25q.41.18.76.45.36.27-2.21 2.93-2.56 2.65-2.84 2.31-.29-.35-.48-.76-.19-.41-.27-.85-.09-.44-.07-.88.02-.45.15-.88.12-.43.35-.82.23-.39.54-.71.31-.32.69-.56.38-.24.81-.38.42-.14.87-.17.45-.04.89.04.44.07.86.25.41.18.76.45.36.27 1.26 1.3.91 1.03 1.23 2.8.32 1.77.22 3.39-.1 1.61-.69 3.5-.59 1.88-2.18 3.19-1.59 1.31-3.26 1.39-1.68.08-3.23-.28-1.54-.35-3.05-1.13-1.5-.78-2.81-1.85-1.31-1.06-2.22-2.26-.92-1.19-1.63-2.69-.7-1.51-1.1-3.85-.39-2.33-.37-3.98.01-1.65.05-1.96.04-.32.15-.62.11-.29.29-.55.19-.27.42-.48.24-.21.52-.36.29-.14.59-.22.31-.08.63-.08t.63.08q.31.08.59.22.28.15.52.36t.42.48q.18.26.29.55.11.3.15.62l.04.31ZM311.525 218.67q-.005 0-.615.44-.61.45-.63 2.25-.01 1.8 1.33 2.62 1.34.83 3.2.84 1.86.01.72-1.23-1.13-1.25-2.54-2.34-1.41-1.09-1.87-1.5-.46-.41-.76-.94t-.42-1.13q-.12-.6-.04-1.21.08-.61.35-1.16.27-.55.7-.98.43-.44.98-.71.55-.27 1.15-.36.61-.08 1.21.03t1.14.41q.53.3.94.75.42.46.66 1.02.24.56.3 1.17.05.61-.1 1.21-.14.59-.47 1.11-.33.52-.8.9-.48.39-1.05.6-.58.21-1.19.23-.61.02-1.2-.15-.58-.18-1.08-.54-.5-.35-.86-.85-.36-.49-.54-1.08-.19-.58-.17-1.2.01-.61.22-1.18.21-.58.59-1.06.38-.48.9-.81.51-.33 1.11-.48.59-.15 1.2-.1.61.04 1.18.28l.56.24 1.62 1.17q1.62 1.17 2.89 2.04 1.26.88 2.29 2.09 1.04 1.22 1.33 3.67.3 2.46.08 4.19-.21 1.73-1.25 2.83-1.05 1.1-2.64 1.56-1.59.46-3.14.41-1.55-.05-3.67-.25-2.13-.2-3.92-.51-1.8-.31-3.15-1.47-1.34-1.16-1.62-2.65t-.2-3.02q.08-1.53.39-3.39.31-1.87 1.49-3.51 1.17-1.64 1.89-2.07.72-.43 1-.57.27-.13.57-.2.3-.06.61-.06.3.01.6.09.29.08.56.23.27.15.49.36.23.21.39.46.17.26.27.55.1.29.13.59.03.31-.01.61-.05.3-.16.59-.12.28-.3.53t-.41.44l-.24.2ZM328.916 209.588q.004.002.274 1.272t1.28 2.42q1.01 1.14 2.76 1.88 1.75.75 3.42.87t0 .3q-1.67.18-1.82.15-.15-.04-.52-.28-.36-.25-.65-.58-.29-.32-.5-.71-.2-.38-.31-.81-.11-.42-.11-.86-.01-.43.09-.86.11-.42.31-.81.2-.39.48-.72.29-.33.65-.58.36-.25.76-.41.41-.16.85-.21.43-.06.86-.01.44.05.85.2.41.15-1.19.42-1.61.27-.19-.24 1.42-.5 3.23-.27 1.81.23.47-.96-1.35-1.19-2.85-3.34-1.5-2.16-1.63-2.77-.12-.61-.05-1.23.07-.62.34-1.18.27-.56.7-1.01.43-.45.99-.74.55-.28 1.17-.38.61-.09 1.23.02.61.1 1.16.4.55.3.97.75.43.46.68 1.03.26.57.32 1.19t-.08 1.23q-.14.6-.47 1.14-.32.53-.8.93-.48.39-1.06.62-.58.22-1.21.25-.62.03-1.22-.14-.6-.18-1.11-.53-.51-.36-.89-.86-.37-.5-.56-1.09-.19-.59-.19-1.22.01-.62.21-1.21.21-.59.59-1.08.38-.49.9-.84.52-.34 1.13-.5.6-.16 1.22-.12.62.04 1.2.27.58.24 1.05.65.47.41.78.95l.32.53 1.25 1.69q1.25 1.68 2.07 3.18.82 1.5 1.37 3.12.55 1.62.56 3.69.01 2.07-1.36 3.43-1.36 1.36-3.48 1.54-2.11.18-3.68-.57-1.57-.75-3.19-.45-1.61.3-1.98.06-.36-.25-.65-.58-.29-.32-.5-.71-.2-.38-.31-.81-.11-.42-.11-.86-.01-.43.09-.86.11-.42.31-.81.2-.39.48-.72.29-.33.65-.58.36-.25.76-.41.41-.16.85-.21.43-.06.86-.01.44.05.85.2.41.15 1.26.48.84.33 2.19 1.62t1.58 3.52q.22 2.22-.51 4-.74 1.77-3.33 2.47-2.58.71-4.44.2-1.87-.5-3.74-1.52t-3.54-2.65q-1.67-1.63-2.28-3.23-.61-1.6-.81-2.89-.21-1.29-.23-1.61-.02-.32.04-.63.05-.31.18-.6.13-.28.33-.53.19-.25.44-.45.25-.19.53-.32.29-.13.6-.19t.63-.04q.31.02.62.11.3.09.57.26.27.16.49.38.23.23.39.5.17.27.26.57l.1.3ZM344.83 186.322q0-.002.87.688t2.12 1.81q1.24 1.13 2.61 2.52 1.37 1.4 2.45 2.97 1.08 1.57 1.3 2.01.23.44.29.92.07.49-.02.98-.09.48-.33.91-.24.43-.6.76-.37.33-.82.53-.45.2-.94.24-.49.04-.97-.07-.48-.12-.89-.38-.42-.27-.73-.65t-.48-.84q-.18-.46-.19-.95-.02-.5.12-.97.15-.47.43-.87.29-.4.68-.69.4-.29.87-.44.47-.15.96-.14.5.01.96.18.46.17.85.47.38.31.65.72.27.42.39.9.12.47.09.96-.04.49-.23.95-.2.45-.52.82-.33.37-.76.61-.42.25-.91.34-.48.1-.97.04-.49-.07-.93-.28-.44-.22-.79-.57l-.35-.34-1.63-2.45q-1.64-2.45-2.96-3.85-1.33-1.41-2.14-2.16-.82-.76-1.03-.99-.21-.22-.36-.5-.15-.27-.23-.57-.08-.3-.09-.61 0-.31.06-.61.07-.31.21-.58.14-.28.34-.52.2-.23.46-.41.25-.19.54-.3.28-.12.59-.16.31-.04.62-.01t.6.13q.29.11.55.28l.26.17ZM359.878 209.073q.002-.003.222.307t.33.67q.12.37.11.75-.02.38-.15.74-.13.35-.37.65-.23.3-.56.5-.32.21-.68.3-.37.09-.75.06t-.73-.18q-.35-.15-.63-.41-.29-.25-.48-.58-.18-.33-.25-.71-.08-.37-.02-.75.05-.37.22-.72.17-.34.43-.61.27-.26.61-.43.35-.17.72-.22.38-.05.75.02.38.07.71.26.33.18.58.47.26.28.41.63.15.35.18.73t-.06.75q-.09.37-.3.69-.2.32-.5.56-.3.23-.66.36-.35.14-.73.15-.38.01-.75-.11-.36-.11-.67-.33l-.31-.22-.25-.16q-.25-.17-.46-.38-.2-.22-.35-.48-.15-.27-.23-.55-.08-.29-.09-.59-.01-.3.05-.6.07-.29.2-.56.13-.27.32-.5.19-.23.43-.41.25-.18.52-.29.28-.12.58-.16.29-.05.59-.02.3.03.58.13.29.09.86.67Z"/></svg>
