<svg width="500" height="500" xmlns="http://www.w3.org/2000/svg"><path d="M237.66 427.436q0 .004-5.19.314t-14.04-.11q-8.85-.42-17.49-2.73-8.65-2.31-15.23-6.87-6.58-4.56-12.99-10.68t-11.71-13.26q-5.3-7.15-10.15-14.19-4.84-7.05-9.81-13.8-4.98-6.75-8.32-14.05-3.35-7.3-4.65-15.57-1.3-8.27-1.7-17.94-.4-9.67-.52-18.65-.11-8.99-.22-18.74-.11-9.75.63-18.72.73-8.97 1.25-17.16.51-8.19 1.39-17.17.88-8.97 4.27-16.41 3.39-7.43 10.76-12.56 7.37-5.13 17.48-7.13 10.12-2.01 18.62-2.28 8.5-.26 18.32-.29 9.82-.02 19.08-.14 9.26-.11 19.55.02 10.29.13 22.28.47 11.98.34 21.12.45 9.14.1 17.35.06 8.22-.04 17.03.48 8.82.52 17.38 1.67 8.55 1.14 15.73 6 7.17 4.86 12.25 11.97 5.09 7.1 8.42 15.75t5.71 17.93q2.37 9.28 3.04 19.4.68 10.12.7 19.18.02 9.05-1.39 19.62-1.42 10.58-3.7 19.06-2.28 8.48-5.08 16.76-2.81 8.28-4.53 16.66-1.72 8.38-3.96 17.22-2.23 8.83-6.8 17.98-4.57 9.14-11.12 16.24-6.55 7.11-13.49 11.98t-15.88 7.92q-8.94 3.05-17.23 4.74-8.28 1.68-18.05 2.32-9.77.63-19.11.85-9.35.21-17.76.23-8.42.02-16.42-1.04-8-1.05-16.24-5.73-8.24-4.67-13.54-12.67-5.31-8.01-8.18-15.54-2.86-7.53-5.85-16.6-2.99-9.08-6.26-19.15-3.27-10.06-5.76-19.46-2.49-9.4-3.6-17.39-1.11-7.99-1.43-16.3-.33-8.3.49-17.77.81-9.47 2.84-17.94 2.03-8.48 4.73-17.45 2.7-8.97 10.47-19.72 7.78-10.74 14.61-14.99 6.83-4.25 20.33-9.26 13.49-5.01 28.02-6.92 14.52-1.91 25.51-1.59 10.99.32 19.33 2.97 8.34 2.66 15.55 6.14 7.22 3.48 14.14 8.36 6.93 4.88 11.81 12.38 4.88 7.49 6.04 16.64 1.15 9.15.51 18.76-.64 9.61-2.56 17.65-1.93 8.04-5 19.82-3.07 11.79-4.9 20.74-1.83 8.95-3.59 16.79-1.76 7.84-4.59 17.62-2.82 9.78-5.89 17.4-3.08 7.61-10.11 14.91-7.04 7.29-14.85 9.11-7.81 1.82-17.46.81-9.66-1.01-19.71-4.94-10.05-3.93-17.04-8.63-6.99-4.69-13.42-11.41t-12.08-15.6q-5.66-8.88-9.54-19.22-3.88-10.33-6.29-22.41t-3.28-25.33q-.87-13.25-.73-23.74.13-10.48 4.41-21.75 4.27-11.26 12.08-18.31 7.81-7.06 18.66-10.46 10.85-3.41 22.38-3.99 11.53-.59 22.87 1.67 11.34 2.27 20.74 9.32 9.41 7.06 14.47 19.95 5.06 12.89 6.48 26.79 1.43 13.91 1.59 27.52.16 13.62-2.09 25.68-2.24 12.05-8.72 22.18-6.47 10.12-16.92 16.03-10.45 5.9-20.08 7.46-9.63 1.55-20.45-1.55-10.82-3.09-17.75-11.44-6.94-8.35-9.14-19.09-2.21-10.74-2.36-21.86-.15-11.12 1.9-22.87 2.04-11.76 5.7-19.68 3.65-7.92 11.87-13.51 8.21-5.59 20.39-2.64 12.18 2.95 19.44 14.86 7.25 11.91 9.43 19.67 2.18 7.77 4.33 21.94 2.15 14.17 2.69 23.56.54 9.38-1.22 17.53t-12.22 14.28q-10.46 6.13-22.03.25-11.56-5.87-20.23-19.99-8.68-14.11-11.47-21.73-2.78-7.63-4.77-19.77-1.99-12.14 1-23.45 3-11.31 12.18-17.43 9.18-6.12 17.37-6.49 8.19-.36 15.9 2.6 7.71 2.97 13.84 8.76 6.13 5.79 9.36 13.5 3.24 7.71 1.95 20.23-1.29 12.52-11.53 19.2-10.23 6.68-24.54.6-14.31-6.09-23.46-18.18t-13.92-21.29q-4.77-9.19-3.5-23.03 1.28-13.83 9.35-19.16 8.08-5.32 19.98-3 11.9 2.32 19.7 6.44 7.8 4.13 14.6 9.17t9.73 10.44q2.94 5.41 3.23 7.86.29 2.45-.01 4.89-.3 2.45-1.17 4.75-.88 2.3-2.29 4.33-1.4 2.03-3.25 3.66-1.84 1.63-4.03 2.77-2.18 1.14-4.58 1.73-2.39.59-4.85.58-2.47 0-4.86-.6-2.39-.59-4.57-1.74t-4.02-2.78q-1.85-1.64-3.24-3.67-1.4-2.03-2.27-4.34-.87-2.3.96-11t10.99-13.82q9.16-5.12 20.5-1.98 11.33 3.15 20.03 8.55 8.69 5.41 14.78 11.56 6.08 6.15 10.99 12.96 4.91 6.81-7.49 6.47-12.4-.34-11.36-9.53 1.04-9.18 8.85.81t-.43 8.18q-8.24-1.82-22.09-4.73-13.85-2.92-22-4.87-8.15-1.95-19.66-5.45t-20.09-7.3q-8.57-3.79-16.19-8.08-7.62-4.28-16.08-5.25-8.46-.98-2.99-7.54 5.46-6.57 1.52.69-3.95 7.26-3.64 6.78.3-.48-1.8 2.22-2.09 2.7-4.94 4.6-2.85 1.89-6.16 2.77-3.3.88-6.71.67-3.42-.22-6.58-1.52t-5.75-3.54q-2.58-2.23-4.32-5.18-1.73-2.95-2.44-6.3-.7-3.34-.3-6.74.41-3.4 1.87-6.48 1.47-3.09 3.84-5.55 2.38-2.46 5.42-4.04 3.03-1.57 6.41-2.09 3.38-.52 6.75.07 3.37.58 6.38 2.21 3 1.64 5.33 4.14 2.33 2.51 3.74 5.62 1.4 3.12 1.74 6.53.33 3.4-.43 6.73-.77 3.33-2.56 6.25-1.8 2.91-4.42 5.1-2.63 2.19-5.82 3.42-3.19 1.24-6.61 1.39-3.41.15-6.7-.8-3.29-.95-6.1-2.89-2.81-1.95-4.85-4.69-2.05-2.75-3.11-6-1.05-3.25-1.02-6.67.03-3.42 1.16-6.65l1.12-3.23q0 .01 5.89-8.53t19-10.85q13.11-2.32 21.79-1.38t17.04 4.66q8.35 3.72 15.57 8.27 7.23 4.56 15.68 7.97 8.46 3.4 21.19 5.93 12.72 2.53 20.96 3.53t19.85 2.7q11.61 1.7 20.38 6.36 8.76 4.66 12.49 14.96 3.72 10.3 2.1 19.08-1.63 8.78-4.74 16.37-3.12 7.59-8.15 14.61t-16.59 8.12q-11.55 1.1-18.11-4.78-6.55-5.89-10.81-13.25-4.25-7.37-9.01-13.99-4.75-6.63-.09-17.12 4.67-10.49 4.96-8.04.29 2.44-.01 4.89-.3 2.45-1.17 4.75-.88 2.3-2.28 4.33-1.41 2.02-3.25 3.66-1.85 1.63-4.04 2.77-2.18 1.14-4.57 1.73-2.4.58-4.86.58-2.47 0-4.86-.6-2.39-.59-4.57-1.74t-4.02-2.78q-1.85-1.64-3.24-3.67-1.4-2.03-2.27-4.34-.87-2.3.42.77 1.28 3.08-6.12-2.7-7.4-5.79-1.06-11.02 6.35-5.23 11.44 2.78 5.1 8 2.19 16.43-2.92 8.42-.32 17.76 2.6 9.34 9.04 19.51 6.43 10.16-3.67 11.85-10.1 1.7-11.03-7.71-.93-9.41 1.25-22.3 2.18-12.9 1.74-3.58-.43 9.33-1.52 18.04-1.08 8.72 7.73 6.83 8.8-1.9 11.29-10.03 2.48-8.14 1.99-20.5t-1.85-23.19q-1.37-10.83-7.42-17.88-6.05-7.05-14.39-6.66-8.35.4-15.55 6.9-7.21 6.5-6.69 17.01.52 10.52 2.04 20.67 1.51 10.15 3.91 18.19 2.4 8.04 7.03 16.3 4.64 8.26 11.42 14.45 6.78 6.2 14.28 10.83 7.49 4.63 10.59-4.31 3.11-8.93 5.46-19.11 2.35-10.17 4.07-19.63 1.73-9.46 3.79-18.57 2.06-9.12 4.42-18.3 2.37-9.17 2.16-18.76-.22-9.59-8.06-13.67-7.84-4.07-15.96-4.94-8.11-.88-18.21.73-10.11 1.62-18.8 5.15-8.7 3.53-15.02 11.04-6.33 7.5-8.58 15.5-2.25 7.99-3.37 17.75-1.13 9.75-.68 17.81.45 8.06 2.68 16.97 2.22 8.92 5.81 19.12 3.59 10.21 6.77 19.27 3.19 9.06 8.46 15.46 5.27 6.4 13.87 6.37 8.6-.04 17.9-.31 9.31-.27 17.66-1.41 8.34-1.15 16.96-4.4 8.62-3.26 14.03-10.59 5.4-7.34 7.34-15.28 1.94-7.94 3.73-16.22 1.8-8.28 4.65-16.22 2.86-7.94 5.24-16.78 2.38-8.85 2.95-17.75.57-8.9.52-17.02-.05-8.12-1.62-16.61-1.56-8.49-6.2-16.72-4.64-8.24-12.72-8.97-8.08-.74-16.29-.78-8.21-.04-17.35.06t-21.12.44q-11.99.34-22.28.47-10.29.13-19.54.02t-18.78-.09q-9.54.02-18.93 1.94-9.39 1.93-10.25 10.32-.86 8.38-1.96 17.55t-1.2 18.88q-.1 9.72-.12 18.36-.03 8.64.16 16.98t1.77 16.21q1.58 7.87 5.94 14.78 4.36 6.92 8.84 14.58 4.48 7.66 9.55 15.42 5.06 7.77 11.27 13.39 6.22 5.61 14.7 7.57 8.48 1.95 13.67 2.13 5.2.17 6.8.35 1.6.17 3.12.72 1.51.55 2.85 1.45 1.33.9 2.42 2.09 1.08 1.19 1.85 2.61.77 1.41 1.17 2.97.41 1.56.43 3.17.02 1.61-.35 3.18-.36 1.57-1.09 3.01-.73 1.43-1.78 2.65t-2.37 2.15q-1.31.93-2.81 1.53-1.5.59-3.09.8l-1.6.22Z"/><path d="m149.46 190.96 5.42-3.06q5.41-3.07 13.22-6.49 7.8-3.42 15.04-7.22 7.25-3.8 15.24-7.75 7.99-3.96 16.06-5.23 8.07-1.26 16.37-1.6 8.29-.34 16.6-.5 8.31-.15 18.12.9 9.8 1.06 17.91 2.37 8.12 1.31 17.26 2.26 9.14.95 17.36 3.21 8.22 2.25 15.35 6.1 7.14 3.85 12.55 10.49 5.41 6.63 9.34 14.49 3.93 7.87 5.82 14.52 1.88 6.66 1.71 10.05-.17 3.4-1.41 6.56-1.25 3.17-3.44 5.77-2.18 2.6-5.09 4.36-2.9 1.77-6.22 2.51-3.32.75-6.7.39-3.38-.35-6.47-1.76-3.09-1.42-5.57-3.75-2.48-2.32-4.08-5.32-1.61-3-2.17-6.35-.57-3.35-.03-6.71.54-3.35 2.12-6.36 1.57-3.01 4.03-5.36 2.46-2.35 5.54-3.79t6.46-1.82q3.37-.38 6.7.33 3.32.72 6.24 2.46 2.92 1.74 5.13 4.32t3.48 5.74q1.28 3.15 1.47 6.54.2 3.4-.69 6.68-.9 3.27-2.8 6.1-1.89 2.82-4.59 4.89-2.7 2.06-5.91 3.16-3.22 1.1-6.62 1.11-3.4.02-6.63-1.05-3.22-1.08-5.94-3.12-2.71-2.05-4.63-4.85-1.92-2.81-2.84-6.08l-.92-3.27.01.13q.02.13-3.31-7.93-3.33-8.05-11.22-10.55-7.89-2.5-17.13-4.07-9.25-1.58-18.86-3.57-9.62-2-18.62-2.79-8.99-.8-18.91-1.15-9.92-.35-18.3 1.33-8.38 1.68-16.58 5.04-8.21 3.36-16.67 5.91-8.47 2.54-14.08 5.2-5.62 2.67-7.15 3.24-1.54.57-3.16.76-1.62.19-3.25-.01-1.62-.21-3.15-.8-1.52-.58-2.86-1.52-1.35-.93-2.42-2.16-1.08-1.23-1.84-2.68-.75-1.46-1.13-3.04-.39-1.59-.38-3.23.01-1.64.41-3.22.4-1.59 1.16-3.03.77-1.45 1.86-2.67 1.09-1.21 2.44-2.14l1.35-.92Z"/><path d="M202.653 190.204q-.003-.004-4.783.246-4.79.25-12.54 4.69-7.76 4.45-9.91 5.89-2.15 1.44-2.41 3.46-.25 2.01-.98 3.9-.73 1.89-1.89 3.56-1.16 1.66-2.68 3-1.53 1.34-3.33 2.27-1.8.93-3.77 1.41-1.97.47-4 .46-2.03-.01-4-.5-1.96-.5-3.76-1.45-1.79-.95-3.3-2.3-1.51-1.36-2.65-3.03-1.15-1.68-1.86-3.58-.71-1.9-.94-3.91-.24-2.02 2.08-9.82 2.32-7.81 9.14-15.93 6.83-8.11 14.81-12.84 7.99-4.73 17.32-7.56 9.34-2.83 19.09-4.88t17.98-2.85q8.23-.81 18.26-.54 10.04.27 18.95 2.62t17.79 6.01q8.88 3.66 16.59 6.85 7.71 3.18 22.93 15.46 15.22 12.29 15.02 15.72-.21 3.44-1.51 6.63-1.29 3.19-3.54 5.81-2.24 2.61-5.2 4.36-2.97 1.76-6.33 2.48-3.37.72-6.79.33-3.43-.4-6.54-1.86-3.12-1.47-5.6-3.85-2.49-2.39-4.08-5.44-1.6-3.05-2.13-6.45-.54-3.41.04-6.8.58-3.4 2.21-6.43t4.15-5.39q2.51-2.35 5.65-3.77 3.13-1.43 6.56-1.78 3.42-.35 6.78.41 3.36.76 6.3 2.56 2.94 1.79 5.15 4.43 2.22 2.64 3.47 5.85 1.26 3.2 1.42 6.64.17 3.44-.78 6.76-.94 3.31-2.89 6.15-1.95 2.83-4.71 4.9-2.75 2.07-6.02 3.15-3.27 1.08-6.72 1.05-3.44-.02-6.7-1.14-3.26-1.12-5.98-3.22-2.73-2.1-4.65-4.97-1.91-2.86-2.81-6.18l-.9-3.33-.05 5.77q-.05 5.77-7.93 2.27-7.88-3.5-15.99-7.22-8.1-3.72-16.29-6.44t-17.44-2.7q-9.25.02-17.18 1.1-7.92 1.08-16.25 2.82-8.32 1.73-15.79 5.57-7.47 3.84-7.73 5.85-.25 2.02-.98 3.91-.73 1.89-1.89 3.56-1.16 1.66-2.68 3-1.53 1.34-3.33 2.27-1.8.93-3.77 1.41-1.97.47-4 .46-2.03-.01-4-.5-1.96-.5-3.75-1.45-1.8-.95-3.31-2.3-1.51-1.35-2.65-3.03-1.15-1.67-1.86-3.57-.71-1.9-.94-3.92-.24-2.01-.14-2.49.09-.47 2.93-7.95 2.83-7.49 9.21-13.18 6.38-5.69 14.34-9.81 7.97-4.12 17.42-5.83 9.46-1.71 14.25-1.46 4.79.24 6.37.43 1.58.2 3.06.76 1.49.56 2.8 1.47 1.3.9 2.36 2.09 1.05 1.19 1.79 2.59.74 1.41 1.12 2.95.38 1.55.38 3.13 0 1.59-.38 3.14-.38 1.54-1.12 2.94-.74 1.41-1.79 2.6-1.06 1.19-2.37 2.09-1.3.9-2.79 1.47-1.48.56-3.06.75l-1.58.19Z"/><path d="M204.853 158.79q-.003 0-2.443-3.65-2.44-3.66-5.42-7.87t-5.66-7.78q-2.69-3.57-5.18-7.06-2.48-3.48-5.52-7.65-3.04-4.17-6.12-8.16-3.07-4-5.93-7.5-2.86-3.49-6.23-7.78-3.37-4.29-5.63-7.98-2.27-3.7-4.97-6.95-2.7-3.25-5.85-6.11-3.15-2.85-4.25 1.09-1.1 3.95-1.32 9.48-.22 5.52-.61 11.82-.39 6.3-.78 10.52-.39 4.21-.71 9-.33 4.79-.67 9.23t-.46 8.68q-.12 4.25-.15 9.87-.02 5.62-.02 11.26-.01 5.63.01 10.62.02 4.99.05 9.03.03 4.05.14 8.42.11 4.38.73 9.62.61 5.25 1.03 9.43.41 4.18 1.16 8.47.75 4.29 1.64 9.05.89 4.75 1.39 9.02.5 4.27.22 5.95-.27 1.68-1.07 3.18-.79 1.5-2.03 2.67-1.23 1.17-2.77 1.88-1.55.72-3.24.9-1.69.19-3.35-.18-1.66-.36-3.11-1.24-1.46-.87-2.56-2.17-1.1-1.3-1.73-2.87-.63-1.58-.73-3.28-.09-1.7.37-3.34.45-1.63 1.4-3.04.96-1.41 2.31-2.44t2.97-1.57q1.61-.54 3.31-.54t3.31.54q1.61.54 2.96 1.57 1.36 1.03 2.31 2.43.95 1.41 1.41 3.05.45 1.64.36 3.33-.09 1.7-.72 3.28-.63 1.58-1.73 2.88-1.1 1.29-2.55 2.17-1.46.88-3.12 1.24-1.66.37-3.35.18-1.69-.18-3.23-.89-1.55-.72-2.78-1.89-1.24-1.17-2.03-2.67-.8-1.5-1.07-3.18l-.28-1.67-.11-1.65q-.12-1.66-.77-5.73-.66-4.07-1.46-8.16-.79-4.09-1.26-9.11-.48-5.02-1.04-9.96-.57-4.93-.97-9.3-.4-4.37-.36-9.71.04-5.34.06-10.21.02-4.87.02-10.45 0-5.59.01-11.36 0-5.77.04-9.79.04-4.03.24-8.79.2-4.76.37-9.36.17-4.6.47-9.33.3-4.72.59-10.36.28-5.63.4-9.91t.21-9.1q.09-4.82.77-9.28.67-4.46 2.92-8.5 2.25-4.03 5.52-7.07 3.26-3.04 7.14-4.33 3.87-1.29 8.19-.84 4.32.45 8.1 2.45 3.77 2 7.4 5.43 3.63 3.42 6.44 6.74 2.81 3.32 5.17 7.45 2.36 4.13 4.85 8.05 2.48 3.92 4.91 7.19 2.43 3.26 4.77 6.52 2.34 3.26 5.14 7.58 2.8 4.31 5.04 7.94 2.24 3.64 4.29 7.23 2.05 3.59 4.57 7.74 2.52 4.14 5.03 8.37 2.52 4.22 4.88 7.93 2.35 3.71 2.72 4.46.37.75.55 1.56.18.82.15 1.66-.02.83-.24 1.64-.22.81-.63 1.54-.41.73-.98 1.34-.57.61-1.27 1.07-.7.45-1.49.73-.79.27-1.63.35-.83.08-1.66-.04-.82-.13-1.6-.44-.77-.32-1.45-.81-.67-.5-1.21-1.14l-.54-.64Zm76.814 5.368q.003.002 2.853-3.798 2.86-3.81 6.9-9.36 4.05-5.56 6.54-9.1 2.5-3.54 6.15-8.81 3.66-5.28 6.94-9.78 3.28-4.51 5.73-8.03 2.46-3.53 5.38-7.53 2.93-4 5.21-7.29 2.29-3.29 5.31-6.81 3.02-3.52 6.35-6.93 3.34-3.41 6.25-6.57t7.03-5.17q4.12-2 8.13-2.28 4.01-.28 8.44 1.53 4.42 1.81 7.48 5.53 3.07 3.72 5.39 8.5 2.33 4.79 3.75 8.76 1.41 3.97 2.61 8.72 1.2 4.76 2.35 10.41 1.14 5.65 1.82 10.23.68 4.59.98 10.42.31 5.84.3 11.55-.01 5.71-.07 11.47-.05 5.77-.34 11.61-.28 5.83-1.03 11.31t-1.79 10.2q-1.04 4.72-2.05 9.29-1.01 4.57-2.14 8.92-1.13 4.36-2.25 8.41t-2.36 9.38q-1.25 5.34-2.15 9.7-.89 4.37-1.61 8.86-.72 4.49-1.31 8.19-.6 3.71-1.08 5.27-.48 1.57-1.43 2.9-.95 1.33-2.28 2.28-1.33.96-2.9 1.44-1.56.48-3.2.44-1.63-.05-3.17-.61-1.53-.56-2.81-1.59-1.28-1.02-2.16-2.4-.88-1.38-1.28-2.97-.39-1.58-.26-3.21.13-1.64.78-3.14.64-1.5 1.74-2.72 1.09-1.22 2.51-2.03 1.43-.8 3.03-1.11 1.61-.31 3.23-.09 1.62.22 3.09.95 1.47.72 2.62 1.88 1.16 1.16 1.89 2.62.73 1.47.95 3.09.22 1.62-.09 3.23-.31 1.6-1.11 3.03-.8 1.42-2.02 2.52-1.22 1.09-2.72 1.74-1.51.64-3.14.78-1.63.13-3.22-.26-1.58-.4-2.96-1.28t-2.41-2.15q-1.02-1.28-1.59-2.81-.56-1.54-.61-3.18l-.04-1.63.54-3.05q.55-3.05 1.48-7.81.94-4.75 2.14-10.06 1.21-5.31 2.69-11.32 1.49-6.02 2.61-9.95 1.13-3.92 2.24-8.07 1.12-4.16 2.11-8.59 1-4.43 2.26-10.79 1.27-6.36 1.74-11.48.48-5.12.45-10.32-.04-5.2-.17-11.39-.14-6.19-.31-10.82-.17-4.62-.67-9.03-.5-4.4-1.6-10.04-1.1-5.64-2.11-10.11-1.01-4.48-2.36-8.91-1.34-4.43-2.12-8.9-.77-4.47-4.58-2.96-3.81 1.52-7.3 4.58-3.5 3.05-6.87 6.22-3.38 3.17-5.97 6.24-2.6 3.08-5.62 6.64-3.01 3.55-5.48 7.01-2.46 3.46-5.63 8.22-3.16 4.77-7.02 9.83-3.87 5.06-6.51 8.72-2.64 3.67-6.99 9.04-4.36 5.38-7.26 9.14-2.9 3.77-3.48 4.36-.58.59-1.28 1.03-.71.44-1.49.7-.79.26-1.62.32-.82.06-1.64-.08t-1.58-.47q-.76-.33-1.42-.83-.66-.5-1.18-1.15-.52-.64-.87-1.39-.35-.75-.51-1.57-.16-.81-.12-1.64.04-.82.27-1.62.24-.79.66-1.51l.42-.71Z"/><path d="M195.943 291.244q-.003-.004-2.223-.864-2.22-.87-6.24-11.41-4.02-10.54 2.73-16.26 6.75-5.72 15.12-7.97 8.37-2.26 17.57-.13 9.2 2.13 14.1 9.53 4.89 7.39 3.06 16.05-1.82 8.66-9.11 12.7-7.28 4.04-15.89 3.47-8.62-.58-17.29-7.28-8.68-6.7-9.29-15.24-.61-8.55 4.88-14.63 5.49-6.09 13.99-9.05 8.5-2.96 19.04 1 10.54 3.95 12.79 11.79 2.24 7.85.49 15.77-1.75 7.92-9.33 12.66-7.58 4.73-15.26 5.68-7.69.95-10.81.44t-5.91-1.99q-2.79-1.48-4.97-3.77-2.17-2.3-3.5-5.16-1.33-2.87-1.67-6.01-.35-3.15.33-6.23.68-3.09 2.31-5.8t4.04-4.76q2.4-2.04 5.34-3.21 2.94-1.18 6.09-1.35 3.16-.17 6.2.67 3.05.85 5.67 2.62 2.61 1.77 4.53 4.29 1.91 2.51 2.92 5.51 1.01 2.99 1.01 6.16 0 3.16-1 6.15-1.01 3-2.93 5.51-1.91 2.52-4.52 4.3-2.62 1.77-5.66 2.62-3.05.84-6.21.67-3.15-.17-6.09-1.34-2.93-1.16-5.34-3.21-2.41-2.05-4.04-4.75-1.63-2.71-2.31-5.8-.69-3.09-.34-6.23.34-3.14 1.66-6.01 1.33-2.87 3.5-5.16 2.18-2.3 4.97-3.78 2.79-1.48 5.91-1.99l3.12-.51 5.83-.48q5.84-.48-1.87 5.52-7.7 6.01-.82 12.75 6.89 6.75 5.42-1.83-1.46-8.58-5.36-.51-3.9 8.06-5.74-.29-1.83-8.35.16-7.21 1.99 1.14 3.3 1.97 1.31.83 2.38 1.95 1.07 1.11 1.84 2.46.78 1.34 1.21 2.83.43 1.49.49 3.04.06 1.54-.25 3.06-.32 1.52-.98 2.92-.67 1.4-1.65 2.6-.98 1.2-2.22 2.13-1.24.93-2.67 1.53-1.42.61-2.95.85-1.53.25-3.08.12-1.54-.12-3.01-.61l-1.47-.5Zm111.007-1.969q0-.005-4.6-.195-4.61-.19-13.64-2.63-9.03-2.45-11.23-12.6-2.2-10.15 3.75-15.67t13.73-8.16q7.77-2.63 15.52 1.18 7.74 3.82 10.82 12.4 3.09 8.58.25 17.76-2.84 9.19-10.57 12.04-7.73 2.86-15.82.31-8.08-2.55-13.15-9.36t-2.7-19.21q2.37-12.4 9.18-15.75 6.82-3.36 9.74-3.28 2.92.08 5.66 1.09 2.75 1.01 5.03 2.84 2.27 1.83 3.85 4.29 1.57 2.47 2.28 5.3.7 2.84.46 5.75-.23 2.92-1.39 5.6-1.16 2.69-3.11 4.86-1.95 2.18-4.5 3.61-2.54 1.44-5.41 1.99t-5.77.16q-2.89-.4-5.51-1.7-2.62-1.3-4.69-3.36-2.06-2.07-3.36-4.69-1.3-2.62-1.69-5.52-.4-2.89.15-5.76.56-2.87 2-5.42 1.44-2.54 3.61-4.49 2.18-1.95 4.86-3.11 2.69-1.15 5.6-1.39 2.92-.23 5.75.47 2.84.71 5.3 2.28 2.46 1.58 4.29 3.86t2.84 5.02q1.01 2.74 1.09 5.67.07 2.92-.79 5.71-.85 2.8-2.56 5.17t-4.08 4.08q-2.38 1.7-5.17 2.56-2.8.85-2.79.85l3.02-1.38q3.02-1.39 1.18-9.64-1.83-8.24-4.27.43-2.44 8.67-1.1-.11 1.34-8.79 5.89-8.08 4.55.71 6.06 1.05 1.51.33 2.89 1.02 1.39.68 2.57 1.68 1.18 1 2.08 2.25.91 1.25 1.49 2.68.58 1.43.8 2.96.23 1.53.08 3.07-.16 1.54-.67 3-.51 1.45-1.36 2.74-.85 1.3-1.98 2.35-1.14 1.05-2.49 1.8-1.35.75-2.84 1.15-1.49.4-3.04.44l-1.54.03Z" fill="#FFDC00"/><path d="M197.685 278.192q.005-.002-.275-2.562t2.67-11.13q2.96-8.56 12.44-10.49 9.48-1.93 15.48 4.58 6 6.5 4.26 17.31-1.74 10.81-9.16 14.72t-15.28 1.8q-7.85-2.12-10.13-13.71-2.27-11.59-1-13.85 1.27-2.25 3.19-3.98 1.93-1.73 4.3-2.76 2.38-1.03 4.96-1.24 2.58-.22 5.09.4t4.69 2.01q2.19 1.39 3.81 3.41 1.63 2.01 2.52 4.44.9 2.43.98 5.02.07 2.58-.69 5.06-.75 2.48-2.26 4.58-1.5 2.1-3.6 3.62-2.1 1.51-4.58 2.27-2.47.77-5.06.7-2.58-.06-5.02-.95-2.43-.89-4.45-2.51-2.02-1.62-3.41-3.8-1.4-2.17-2.03-4.69-.63-2.51-.42-5.09.2-2.58 1.22-4.96 1.02-2.37 2.75-4.3 1.72-1.93 3.97-3.21 2.26-1.28 4.8-1.77t5.1-.15q2.57.35 4.89 1.5 2.32 1.14 4.15 2.97 1.83 1.83 2.99 4.15 1.15 2.31 1.5 4.88.36 2.56-.13 5.1-.48 2.55-.48 2.54l-1.08-4.43q-1.07-4.44-9.43-2.59-8.35 1.85-.14 1.5 8.22-.34 8.11 2.23-.12 2.58-.25 4.09-.14 1.51-.63 2.94t-1.31 2.71q-.82 1.27-1.92 2.31t-2.42 1.79q-1.32.74-2.78 1.15-1.46.41-2.97.46-1.52.05-3-.27-1.48-.31-2.84-.97-1.37-.66-2.53-1.63-1.17-.97-2.07-2.19-.9-1.22-1.48-2.62-.58-1.39-.81-2.89l-.23-1.5Zm96.393 6.486-1.848-1.528q-1.84-1.52-5.31-8.78-3.46-7.25.18-14.46 3.63-7.22 14.56-8.32 10.92-1.09 15.26 5.78t4.66 15.2q.31 8.34-6.37 14.35-6.67 6.02-18-1.18-11.33-7.2-11.13-9.73.2-2.53 1.2-4.86 1.01-2.33 2.7-4.22 1.69-1.89 3.9-3.14 2.21-1.25 4.7-1.73t5-.14q2.52.34 4.79 1.47t4.07 2.92q1.79 1.79 2.92 4.06 1.13 2.28 1.47 4.79.35 2.51-.13 5-.48 2.5-1.72 4.7-1.25 2.21-3.14 3.91-1.89 1.69-4.22 2.7-2.33 1-4.85 1.21-2.53.2-4.99-.41-2.47-.61-4.6-1.97-2.14-1.37-3.73-3.34-1.59-1.98-2.47-4.36-.88-2.38-.94-4.92-.07-2.53.67-4.96.74-2.42 2.22-4.49 1.48-2.06 3.54-3.54t4.48-2.22q2.43-.75 4.97-.68 2.53.07 4.91.94 2.38.87 4.36 2.46 1.98 1.59 3.35 3.73 1.36 2.14 1.98 4.6l.61 2.46q0-.01-11.77-2.36-11.76-2.35-4.34-6.46 7.42-4.11 8.98-2.36 1.56 1.76 2.52 2.94.95 1.18 1.6 2.55.65 1.37.95 2.86.3 1.49.23 3-.06 1.52-.49 2.97-.42 1.46-1.18 2.77-.77 1.31-1.82 2.41-1.05 1.09-2.34 1.9-1.28.8-2.72 1.28-1.44.48-2.96.6-1.51.12-3.01-.13-1.49-.25-2.89-.85-1.39-.59-2.6-1.51l-1.21-.91Z"/><path d="M221.093 266.419q-.003.001.327.461.33.45.5.99.16.54.15 1.11-.02.56-.21 1.09-.2.53-.55.97-.35.44-.83.74-.47.3-1.02.44t-1.11.09q-.56-.05-1.08-.27-.52-.22-.94-.6-.42-.37-.69-.86-.28-.5-.39-1.05-.1-.55-.03-1.11.08-.56.33-1.07.25-.5.65-.9t.9-.65q.51-.25 1.07-.32.55-.08 1.11.03.55.1 1.04.38t.87.7q.38.42.6.93.22.52.27 1.08.04.57-.09 1.11-.14.55-.44 1.03-.31.47-.75.82-.44.36-.97.55-.53.2-1.09.21-.56.02-1.1-.15-.54-.17-1-.49l-.46-.33-.33-.27q-.34-.27-.6-.62-.26-.34-.43-.73-.18-.4-.25-.83-.07-.42-.04-.85.03-.43.17-.84.13-.41.36-.78.22-.36.53-.66.31-.31.68-.52.38-.22.79-.35.41-.12.84-.14.43-.02.86.06.42.09.81.27.39.18.97.75Zm89.437-2.631q0 .002.33.462.33.45.49.99.17.54.15 1.1-.01.57-.21 1.1-.19.53-.54.97-.36.44-.83.74-.48.3-1.02.44-.55.13-1.11.09-.56-.05-1.08-.27-.52-.22-.94-.6-.42-.38-.7-.87-.27-.49-.38-1.04-.11-.55-.03-1.11t.33-1.07q.25-.5.65-.9.39-.4.9-.65.5-.25 1.06-.33.56-.07 1.12.03.55.11 1.04.39t.87.7q.37.42.6.93.22.52.26 1.08.05.57-.09 1.11-.13.55-.44 1.02-.3.48-.74.83-.44.36-.97.55-.53.19-1.09.21-.56.01-1.1-.15-.54-.17-1-.5l-.46-.32-.33-.27q-.34-.27-.6-.62-.26-.34-.44-.74-.17-.39-.24-.82-.07-.42-.04-.85.03-.43.16-.84.14-.41.36-.78.23-.37.54-.67.31-.3.68-.52.37-.21.79-.34.41-.12.84-.14.43-.02.86.06.42.08.81.27.39.18.97.75Z" fill="#FFF"/><path d="M213.964 341.515q-.004.005-5.774-.045-5.78-.04-12.62-.07-6.84-.03-13.63-.05-6.78-.02-15.44-.03-8.67-.02-18.29-.03-9.62-.01-18.94-.38-9.32-.37-17.99-.87-8.68-.51-16.21-1.21-7.54-.7-13.87-1.45-6.33-.75-11.5-1.48-5.16-.73-9.13-1.22-3.96-.49-7.68-1.19-3.71-.71-6.82-1.29-3.1-.58-5.73-1.22-2.62-.64-5.81-1.35-3.19-.72-5.81-2.82-2.61-2.1-2.61-2.65.01-.54.18-1.06.18-.52.52-.95.33-.43.79-.73.45-.3.98-.44.53-.15 1.07-.11.55.03 1.05.24.51.21.92.57.41.35.69.82.28.47.39 1.01.11.53.05 1.07-.07.55-.3 1.04-.23.49-.61.89-.38.39-.87.64-.48.25-1.02.33-.54.09-1.08-.01-.54-.09-1.02-.35t-.85-.66q-.37-.4-.6-.9-.22-.5-.27-1.04-.06-.54.07-1.07.12-.54.4-1 .29-.47.71-.82t.93-.54q.51-.2 1.05-.22.55-.03 1.07.12.53.15.98.46.45.32.77.75.33.44.5.96l.17.52.29-.59q.29-.59 3.29.48 3.01 1.07 5.4 1.89 2.4.81 5.43 1.59t6.55 1.6q3.53.82 7.48 1.43 3.95.61 9.06 1.33 5.12.72 11.39 1.46 6.28.73 13.74 1.42 7.46.68 16.09 1.18 8.63.49 17.86.84 9.23.35 18.85.34 9.62-.01 18.29-.03 8.66-.01 15.44-.04 6.79-.02 13.63-.05 6.84-.03 12.62-.07 5.77-.04 6.08 0 .3.04.59.14.29.11.54.29.25.17.46.4.2.23.34.5.15.28.22.57.07.3.07.61t-.07.6q-.07.3-.22.57-.14.28-.34.51-.21.22-.46.4-.25.17-.54.28-.29.11-.59.15l-.31.04Z"/><path d="m161.318 346-2.948.09q-2.96.08-6.09.14-3.13.06-6.31.1-3.18.04-6.75.17-3.57.12-8.04.81-4.47.69-8.48 1.51-4 .83-8.28 2.06-4.28 1.24-8.79 2.6-4.52 1.35-9.28 3.04t-9.95 3.45q-5.19 1.75-9.33 3.03-4.15 1.27-7.79 2.37-3.64 1.11-6.35 1.99-2.72.89-5.03 1.53-2.32.64-2.47 1.12-.15.49-.44.91-.3.41-.71.71t-.89.45q-.49.15-1 .14-.51-.01-.98-.18-.48-.17-.88-.49-.4-.32-.68-.74-.27-.43-.4-.92-.12-.5-.08-1 .03-.51.23-.98t.54-.85q.34-.38.78-.63t.94-.35q.5-.1 1-.04.51.07.96.29.46.23.82.58.36.36.59.82.23.45.3.95.07.51-.02 1.01-.09.5-.34.94-.25.45-.63.79-.37.34-.84.54-.47.21-.97.25-.51.04-1-.08-.5-.12-.93-.39-.43-.27-.75-.66-.32-.4-.5-.87-.18-.48-.19-.99l-.02-.51 4.68-2.91q4.69-2.92 7.45-3.58 2.77-.65 6.4-1.62 3.63-.97 7.7-2.21 4.07-1.23 9.2-3.03 5.12-1.8 9.96-3.62 4.84-1.81 9.34-3.28 4.49-1.47 8.96-2.93 4.46-1.46 8.55-2.38 4.09-.92 8.96-1.91 4.86-.99 8.55-1.14 3.7-.15 6.88-.11 3.18.04 6.31.1 3.13.06 6.09.14 2.95.09 3.29.13.34.04.66.16.32.13.6.32.28.19.51.45.23.26.38.56.16.3.25.64.08.33.08.67t-.08.67q-.09.34-.25.64-.15.3-.38.56-.23.26-.51.45t-.6.32q-.32.12-.66.16l-.34.04Zm12.718 14.943q.004-.003-6.556 2.717t-15.35 7.81q-8.79 5.1-15.45 8.78-6.66 3.68-12.54 6.9-5.88 3.22-9.71 5.34-3.84 2.13-7.03 3.74-3.19 1.61-7.08 3.6t-4.31 2.21q-.43.23-.9.3-.47.07-.94-.01-.48-.08-.9-.3-.42-.23-.75-.58-.32-.35-.52-.79-.2-.43-.25-.91-.05-.48.06-.94.11-.47.36-.88.25-.41.61-.72.37-.3.82-.48.44-.17.92-.19.48-.03.94.1.46.14.86.41.39.27.68.65.28.39.43.84.15.46.15.93 0 .48-.16.94-.16.45-.45.83-.29.38-.69.64-.4.27-.86.39-.46.13-.94.1-.48-.03-.92-.21-.45-.18-.81-.49-.36-.32-.6-.73-.25-.41-.35-.88-.1-.47-.04-.94.05-.48.26-.91.2-.43.53-.78l.33-.35q0 .01 4.54-1.99t7.65-3.38q3.12-1.38 6.94-3.54 3.83-2.16 9.65-5.45 5.82-3.3 12.37-7.06 6.55-3.77 15.57-9.18 9.02-5.4 15.48-8.34 6.46-2.94 6.82-3.05.36-.11.74-.13.38-.02.75.06.37.07.71.23.34.16.64.4.29.23.52.53.23.3.38.65.15.35.21.72.07.37.04.75-.03.37-.15.73-.11.36-.31.68-.2.32-.47.59-.27.26-.6.45l-.32.19Zm131.329-34.447q.005.004.325.454.33.46.5 1 .16.54.15 1.1-.02.57-.21 1.1-.2.53-.55.96-.35.44-.83.75-.47.3-1.02.44-.55.13-1.11.09-.56-.05-1.08-.27-.52-.22-.94-.6-.42-.38-.69-.87-.28-.49-.39-1.04-.1-.56-.03-1.11.08-.56.33-1.07.25-.5.65-.9t.9-.65q.51-.25 1.07-.33.56-.07 1.11.03.55.11 1.04.39.49.27.87.69.38.42.6.94.22.52.27 1.08.04.56-.09 1.11-.14.55-.44 1.02-.31.48-.75.83-.43.35-.96.55-.53.19-1.1.21-.56.01-1.1-.15-.54-.17-1-.5l-.45-.33-.34-.27q-.34-.27-.6-.61-.26-.34-.43-.74-.17-.39-.25-.82-.07-.42-.04-.85.03-.43.17-.84.13-.41.36-.78.23-.37.54-.67.3-.3.68-.52.37-.22.78-.34.42-.12.85-.14.43-.02.85.06t.81.26q.4.19.97.76Z"/><path d="M302.326 325.732q.004-.002 6.774.058l12.19.09q5.43.04 10.9.07 5.47.03 10.71.05 5.24.02 9.72.04 4.49.01 8.65-.02t8.78-.16q4.62-.12 9.16-.73 4.54-.6 8.33-1.42 3.78-.83 7.19-1.83 3.41-1 6.23-1.85 2.82-.85 6.06-2.09 3.23-1.23 5.4-2.24 2.18-1.01 4.39-2.1 2.21-1.09 4.89-2.31 2.68-1.21 6.23-2.14 3.55-.92 4.24-.91.7.01 1.35.24.65.24 1.2.67.54.43.92 1.01.38.58.56 1.26.17.67.12 1.36-.05.69-.32 1.33-.27.65-.73 1.17-.46.52-1.06.86-.6.35-1.28.49t-1.37.05q-.69-.09-1.31-.39-.63-.31-1.13-.79-.49-.49-.8-1.11-.32-.62-.42-1.31-.1-.68.03-1.37.12-.68.46-1.29.33-.61.85-1.07.51-.47 1.15-.75.63-.28 1.32-.35.7-.06 1.37.1.68.17 1.27.54.58.36 1.02.9.44.54.69 1.19.24.65.27 1.34.02.7-.17 1.36-.2.67-.6 1.24-.4.56-.96.97-.56.42-1.23.62l-.66.21-2.84.57q-2.85.57-5.35 1.45-2.5.88-4.82 1.71-2.31.84-4.9 1.64-2.59.81-6.09 1.67-3.51.86-6.36 1.49-2.85.63-6.46 1.53-3.6.89-7.56 1.63-3.96.74-8.73 1.39-4.78.65-9.47.82-4.7.16-8.86.13-4.16-.03-8.65-.02-4.48.02-9.72.04t-10.71.05q-5.47.03-10.9.07l-12.19.09q-6.77.06-7.09.02-.32-.04-.62-.15-.3-.12-.56-.3-.26-.18-.47-.42-.22-.24-.37-.52-.14-.28-.22-.59-.08-.32-.08-.64 0-.31.08-.63.08-.31.22-.59.15-.28.37-.52.21-.24.47-.42t.56-.3q.3-.11.62-.15l.32-.04Zm-2.076 7.806q0 .002 7.72.042t16.94.07q9.22.03 16.33.05l14.47.04 14.32.02q6.97.02 13.54.02 6.57.01 13.03.48 6.46.47 12.64 1.6 6.18 1.13 12.18 2.53 5.99 1.4 11.41 2.86 5.42 1.45 9.53 2.67 4.11 1.23 7.58 2.28 3.48 1.05 6.18 1.86 2.71.8 6.3 1.74t6.02 2q2.42 1.07 2.74 1.49.32.43.48.93.16.5.16 1.03-.01.53-.18 1.03-.18.5-.5.92-.33.42-.77.71t-.95.43q-.51.13-1.04.1-.53-.04-1.02-.24-.49-.2-.89-.55-.4-.34-.67-.8-.26-.46-.37-.97-.11-.52-.05-1.05.07-.52.3-1 .22-.48.59-.86t.84-.62q.47-.24.99-.32.53-.08 1.05.01t.98.34q.47.26.83.64.36.39.57.88.22.48.27 1.01.05.52-.07 1.04-.12.51-.39.96-.28.45-.69.79-.41.34-.9.53-.49.19-1.02.21-.53.03-1.04-.12t-.94-.45l-.44-.3-1.11-.36q-1.12-.35-4.64-1.75-3.53-1.4-6.12-2.42-2.6-1.03-5.97-2.24-3.36-1.21-7.38-2.47-4.01-1.26-9.36-2.69-5.34-1.44-11.24-2.81-5.89-1.37-11.82-2.46-5.94-1.09-12.24-1.54-6.29-.45-12.86-.44l-13.54.02-14.32.02-14.47.04q-7.11.02-16.33.05-9.22.03-16.94.07-7.72.04-8.02.01-.31-.04-.6-.15-.28-.11-.54-.28-.25-.18-.45-.41-.21-.23-.35-.5-.14-.27-.22-.57-.07-.3-.07-.6 0-.31.07-.61.08-.3.22-.57.14-.27.35-.5.2-.23.45-.41.26-.17.54-.28.29-.11.6-.14l.3-.04Zm-18.31 7.163 6.76.089q6.76.08 15.88.14 9.11.06 21.19 2.42 12.08 2.36 24.17 5.65 12.1 3.29 21.21 6.03 9.12 2.73 15.45 4.6 6.33 1.86 11.06 3.17 4.73 1.32 7.86 2.08 3.12.77 6.1 1.03 2.98.27 7.2 1.32 4.23 1.06 4.38 1.57.16.5.15 1.03-.02.53-.2 1.03-.18.5-.51.92-.33.41-.78.7-.45.28-.96.41-.52.13-1.05.09-.53-.04-1.02-.25-.48-.21-.88-.56-.39-.36-.66-.82-.26-.46-.36-.98-.1-.52-.03-1.05t.31-1q.23-.48.61-.86.37-.37.85-.61.47-.23 1-.31.52-.07 1.05.03.52.1.98.36.46.26.82.66.35.39.56.88.21.48.26 1.01.04.53-.09 1.05-.12.51-.41.96-.28.45-.7.78-.41.34-.91.52t-1.03.2q-.53.01-1.04-.14-.5-.16-.94-.47-.43-.31-.74-.74l-.31-.43-1.69.48q-1.7.47-4.97-.33-3.27-.8-6.31-1.79-3.03-.99-7.81-2.29-4.77-1.3-11.12-3.13-6.35-1.84-15.42-4.51-9.07-2.68-21.01-5.87-11.94-3.18-23.55-5.41-11.61-2.23-20.72-2.17-9.11.06-15.87.15-6.76.08-7.1.04-.35-.04-.67-.16-.32-.13-.6-.32-.29-.2-.52-.46-.22-.25-.39-.56-.16-.3-.24-.64-.08-.33-.08-.68 0-.34.08-.68.08-.33.25-.64.16-.3.38-.56.23-.26.52-.46.28-.19.6-.31.32-.13.67-.17l.34-.04ZM143.93 71.56l4.05 2.56q4.06 2.57 7.39 4.98 3.32 2.41 8.4 7.1 5.07 4.7 9 8.85 3.94 4.16 7.05 7.75 3.11 3.58 5.81 7.17 2.7 3.59 5.3 7.64 2.6 4.05 5.32 9.03 2.71 4.99 4.77 9.56 2.07 4.58 3.72 8.59 1.65 4.01 3.27 8.1 1.63 4.1 2.23 6.75.6 2.66.6 3.84-.01 1.19-.3 2.34-.28 1.15-.84 2.19-.55 1.05-1.34 1.94-.79.88-1.77 1.55-.97.67-2.08 1.09-1.11.41-2.29.55-1.18.14-2.35-.01-1.18-.14-2.28-.57-1.11-.42-2.08-1.1-.98-.67-1.76-1.56t-1.33-1.95q-.54-1.05-.82-2.2-.28-1.15-3.9-4.08-3.62-2.92-7.44-7.92-3.83-5-6.42-8.69-2.6-3.69-5.17-7.56-2.56-3.87-4.89-7.84-2.32-3.96-5.12-8.4-2.79-4.44-5.04-8.23t-4.73-7.79q-2.49-4-5.08-7.44-2.6-3.44-5.61-6.07-3.02-2.64-3.51-3.32-.5-.69-1.89-1.62-1.39-.93-2.41-2.26-1.02-1.33-1.57-2.92-.54-1.59-.55-3.26 0-1.68.52-3.27.53-1.59 1.54-2.93t2.39-2.29q1.38-.94 3-1.4 1.61-.45 3.28-.37 1.68.08 3.24.7 1.56.61 2.84 1.69 1.28 1.08 2.15 2.51.88 1.43 1.24 3.07.37 1.63.2 3.3-.18 1.67-.87 3.19-.7 1.53-1.85 2.75-1.14 1.22-2.62 2.01-1.48.79-3.13 1.07-1.66.28-3.31.02-1.66-.27-3.14-1.04-1.48-.78-2.64-1.99-1.16-1.22-1.87-2.73-.71-1.52-.9-3.19-.19-1.66.16-3.3.36-1.64 1.21-3.08.86-1.44 2.13-2.53 1.28-1.09 2.83-1.72 1.56-.63 3.23-.73 1.67-.09 3.29.35l1.62.44q-.01 0 2.34 1.82 2.35 1.82 5.93 5.09 3.59 3.26 6.45 6.75 2.87 3.48 5.06 6.85 2.18 3.37 4.69 7.65 2.52 4.28 4.81 8.27 2.29 4 5.28 9.12 2.99 5.11 5.18 8.62 2.2 3.51 4.72 7.21 2.52 3.7 5.79 7.93 3.26 4.22 5.9 7.24 2.64 3.01 5.38 6.31 2.75 3.29 4.62 6.93 1.88 3.63 1.88 4.81-.01 1.19-.29 2.34-.29 1.15-.85 2.19-.55 1.05-1.34 1.94-.79.88-1.77 1.55-.97.67-2.08 1.09-1.11.41-2.29.55-1.17.14-2.35-.01-1.18-.14-2.28-.57-1.11-.42-2.08-1.1-.97-.67-1.76-1.56-.78-.89-1.33-1.94-.54-1.06-.82-2.21-.28-1.15-.12-.97.17.18-1.07-3.7-1.23-3.88-2.6-7.88-1.37-3.99-2.78-7.98-1.42-4-3.03-7.81-1.61-3.81-4.4-8.85-2.79-5.05-6.37-10.22-3.59-5.18-6.57-8.86-2.98-3.69-6.73-7.85-3.75-4.15-8.63-8.55-4.89-4.39-8.94-6.97-4.04-2.58-4.7-3.12-.66-.54-1.17-1.23-.51-.68-.85-1.47-.33-.78-.47-1.63-.13-.84-.06-1.7.07-.85.34-1.66.27-.81.73-1.53.46-.72 1.08-1.31.62-.59 1.36-1.02.74-.43 1.56-.66.82-.24 1.68-.27.85-.03 1.69.14t1.61.54l.77.37Zm158.114 110.602q-.004-.002.106-3.362.11-3.36 1.35-8.92 1.25-5.55 2.97-9.27 1.72-3.72 4.02-7.42 2.29-3.7 4.78-7 2.49-3.31 5.98-7.15 3.48-3.84 6.67-7.12 3.19-3.28 5.81-6.52 2.62-3.23 5.27-6.9 2.66-3.67 5.1-7.09 2.44-3.43 6.05-7.32 3.6-3.89 1.42-.44t-.73-.33q1.44-3.79 2.68-5.98 1.24-2.2 2-3.16.77-.97 1.75-1.72.97-.75 2.1-1.25 1.13-.5 2.34-.71 1.22-.21 2.44-.13 1.23.09 2.41.46 1.17.38 2.22 1.02 1.05.65 1.91 1.53.87.88 1.5 1.93.62 1.06.98 2.24.36 1.18.42 2.41.07 1.23-.16 2.44-.24 1.21-.75 2.33t-5.13 3.28q-4.61 2.17-7.33 5.31-2.73 3.14-6.69 6.24-3.97 3.1-7.59 6.25-3.63 3.16-6.77 6.14-3.13 2.97-6.03 5.98-2.9 3.01-5.76 6.61-2.86 3.6-5.38 7.04t-4.71 7.05q-2.19 3.62-3.92 7.4-1.73 3.78-3.8 8.45-2.08 4.67-8.6 1.33-6.51-3.34-4.86-3.28 1.65.06 3.2.65 1.55.59 2.83 1.64 1.28 1.05 2.15 2.46.88 1.4 1.26 3.01.38 1.61.23 3.26-.15 1.65-.83 3.16-.67 1.51-1.78 2.73-1.12 1.22-2.57 2.02-1.45.8-3.08 1.09-1.63.3-3.27.06-1.63-.25-3.11-1-1.47-.75-2.63-1.93-1.16-1.19-1.88-2.68-.72-1.49-.92-3.13-.21-1.64.12-3.26.33-1.63 1.16-3.06.83-1.43 2.08-2.52 1.24-1.09 2.77-1.73 1.53-.64 3.18-.75 1.65-.12 3.25.3t2.99 1.32q1.38.91 2.4 2.21 1.03 1.3 1.58 2.86.55 1.56.58 3.22.03 1.65-.48 3.23-.5 1.58-1.48 2.91t-2.34 2.28q-1.35.95-2.94 1.42l-1.59.47q.01 0-3.86-11.25-3.86-11.25-1.91-15.36 1.94-4.1 4.21-8.81 2.26-4.7 5.22-9.38 2.96-4.67 5.65-8.35 2.69-3.68 6.01-7.95t6.38-7.49q3.06-3.21 6.5-6.55 3.43-3.33 7.47-7 4.03-3.67 8.09-7.06 4.07-3.39 9.26-6.87 5.19-3.48 9.38-4.72 4.2-1.25-.22.96-4.41 2.2-3.65 1.24.77-.97 1.75-1.72.97-.75 2.1-1.25 1.13-.5 2.34-.71 1.21-.21 2.44-.13 1.23.09 2.41.46 1.17.38 2.22 1.02 1.05.65 1.91 1.53.87.87 1.5 1.93.62 1.06.98 2.24.36 1.18.42 2.41.07 1.23-.16 2.44t-.75 2.33q-.51 1.12-2.04 3.42t-4.07 5.98q-2.54 3.69-5.54 7.3-2.99 3.6-6.34 7.83-3.36 4.24-6.07 7.32-2.72 3.08-6.15 6.14-3.44 3.05-6.54 6-3.09 2.94-6.44 6.63-3.35 3.69-6.18 7.73-2.84 4.04-4.7 8.63-1.86 4.59-2.14 7.94-.29 3.34-.44 4.18-.15.84-.5 1.62-.35.78-.87 1.45-.53.67-1.2 1.2-.67.53-1.45.88-.78.35-1.62.51-.84.15-1.69.1-.85-.05-1.67-.3-.81-.25-1.54-.69-.73-.44-1.34-1.04-.6-.61-1.05-1.34-.44-.73-.69-1.54-.26-.81-.31-1.67l-.06-.85Zm-1.519 84.872q-.005-.004.105 3.446t.38 8.5q.26 5.06-5.41 8.61-5.67 3.56-10.2-1.36-4.53-4.92-6.44-11.44-1.92-6.53-3.07-11.12-1.15-4.6-1.89-11.71-.74-7.11-1.45-15.39-.71-8.27-1-12.76-.28-4.48 5.48-8.66 5.77-4.18 9.85-.37 4.08 3.81 6.49 8.05 2.42 4.23 5.08 9.69 2.67 5.45 5.04 11.35 2.36 5.9 4.13 11.46 1.78 5.56 2.88 9.57 1.11 4 2.15 10.64 1.03 6.64.71 12.63-.32 6-4.2 8.91-3.88 2.92-9.29 1.11-5.4-1.8-9.24-7.8-3.83-6-4.84-10.2-1.01-4.19-1.61-11.06-.6-6.86 2.8-13.79 3.39-6.93 10.38-8.86 6.98-1.93 11.35-.12 4.37 1.82 8.18 6.27 3.82 4.46 5.97 8.19 2.15 3.74 4.56 10.39 2.42 6.64 3.06 11.31.64 4.66-2.55 10.25t-8.69 6.73q-5.49 1.14-9.41-.48-3.91-1.62-8.49-7.62t-6.16-12.95q-1.58-6.94-1.83-11.21-.26-4.27 7.93-8.77 8.2-4.49 11.28-.35 3.07 4.13 4.2 9.74 1.12 5.6 1.35 10.62.24 5.01-2.66 10.76-2.91 5.74-9.27 7.55-6.36 1.8-10.69.49-4.33-1.32-7.96-3.69-3.64-2.37-6.93-5.67-3.29-3.3-7.25-10.18t-4.7-13.9q-.74-7.02 1.29-11.29 2.03-4.28 5.49-6.93 3.47-2.65 10.56-4.12 7.09-1.47 11.24-.52 4.14.95 9.27 5.68 5.13 4.73 6.96 10.66 1.83 5.94.46 13.23t-3.96 10.57q-2.58 3.28-8.75 6.91-6.16 3.63-12.62 4.52-6.45.9-13.47-1.62-7.03-2.51-10.89-8.86-3.86-6.35-4.23-13.11-.37-6.77 3.21-13.35t9.35-9.91q5.77-3.32 10.61-4.1 4.84-.78 10.13 1.4 5.3 2.18 7.43 6.31 2.12 4.13 1.79 8.88-.33 4.75-4.29 9.43-3.95 4.69-5.42 5.38-1.48.69-3.09.87-1.62.18-3.2-.17-1.59-.35-2.99-1.18-1.39-.83-2.45-2.07-1.05-1.23-1.66-2.74-.6-1.51-.69-3.13-.1-1.62.33-3.19.44-1.57 1.34-2.92.91-1.34 2.2-2.33t2.83-1.51q1.54-.52 3.17-.52 1.62-.01 3.16.51 1.54.51 2.84 1.49 1.29.98 2.21 2.32.91 1.35 1.35 2.91.44 1.57.36 3.19-.09 1.62-.68 3.13-.6 1.51-1.65 2.75-1.05 1.24-2.44 2.09-1.39.84-2.98 1.19-1.58.35-3.2.18-1.61-.17-3.09-.85-1.48-.68-2.66-1.79-1.18-1.12-1.94-2.55-.77-1.44-1.04-3.04-.26-1.6 0-3.2.26-1.61 1.01-3.05.76-1.43 1.94-2.55 1.18-1.12 1.17-1.12l2.13 2.25q2.13 2.25-2.15 3.83-4.29 1.57-3.9 6.77.38 5.2 4.69 5.29 4.31.1 8.49-2.46 4.17-2.56 3.12-7.61-1.05-5.05-4.86-2.53-3.8 2.53-1.78 6.3 2.02 3.76 6.1 6.15 4.09 2.38 3.74-2.33-.36-4.72 6.49-5.42 6.86-.71 7.11 3.3.26 4 .55 8.68.28 4.68-1.29-.07-1.58-4.76-6.06-7.75-4.47-2.98-3.73 2.3.75 5.28-1.11 10.21-1.85 4.94-1.96.39-.11-4.55-1.33-11.12-1.23-6.58-2.92-11.52-1.69-4.94-4.09-10.16-2.41-5.23-5.24-10.22t-5.78-11.24q-2.96-6.25 2.14-7.98 5.09-1.73 5.01 2.62-.08 4.35.33 11.95.4 7.59 1.51 13.85 1.1 6.27 2.13 10.43 1.03 4.16 2.91 11.85 1.89 7.7-2.48 10.12-4.38 2.41-4.12-2.63.27-5.04.38-8.49.11-3.45.21-4.25.09-.8.38-1.56.29-.76.75-1.42.46-.67 1.06-1.2.61-.54 1.32-.92.72-.37 1.51-.57.78-.19 1.59-.19t1.6.19q.78.2 1.5.57.72.38 1.32.92.61.53 1.07 1.2.46.66.74 1.42.29.76.39 1.56.09.81.09.8Z"/><path d="m303.57 291.02-2.8-.23q-2.81-.22-6.98-1.79-4.18-1.56-7.22-5.38-3.03-3.82-3.67-7.97-.63-4.15.4-8.36 1.03-4.2 4.15-7.36 3.12-3.17 7.09-5.3 3.97-2.14 7.84-3.25 3.88-1.11 9.53-1.11 5.66 0 9.67 2.81t6.48 6.32q2.48 3.52 4.05 8.16 1.57 4.64.71 9.32-.86 4.68-4.09 7.86-3.22 3.18-7.29 4.94-4.08 1.77-9.11 2.42-5.03.66-10.23.01-5.19-.66-8.53-3.02-3.34-2.36-5.29-6.02-1.94-3.66-1.79-7.97.15-4.3 2.91-8.76 2.77-4.45 6.69-6.34 3.92-1.88 8.71-2.57 4.79-.68 6.5-.43 1.7.26 3.23 1.04 1.54.79 2.74 2.02 1.2 1.24 1.95 2.79.74 1.56.95 3.27.21 1.71-.14 3.39-.34 1.69-1.21 3.18-.87 1.49-2.17 2.62-1.3 1.13-2.89 1.79-1.59.66-3.31.78-1.72.11-3.38-.32-1.67-.44-3.11-1.39t-2.5-2.3q-1.06-1.36-1.63-2.99-.57-1.62-.6-3.34-.02-1.73.51-3.36.53-1.64 1.55-3.03t2.44-2.37q1.41-.99 3.06-1.47 1.66-.48 3.38-.41t3.33.68q1.61.62 2.93 1.71 1.33 1.1 2.24 2.57.91 1.46 1.3 3.14.39 1.67.23 3.39-.16 1.71-.86 3.29-.71 1.57-1.87 2.84-1.17 1.26-2.68 2.09-1.51.83-3.21 1.13-1.7.3-1.69.3l-2.58-2.77q-2.59-2.77.76-5.02 3.35-2.25-.62-1.55-3.97.69-5.86 4.35-1.88 3.66.87 4.12 2.76.45 3.55.65t1.51.58q.72.37 1.33.92.6.54 1.06 1.21.47.67.75 1.43.29.76.39 1.57.09.8-.01 1.61-.1.81-.38 1.57-.29.76-.76 1.43-.46.67-1.07 1.21-.61.53-1.33.91-.72.38-1.51.57-.79.19-1.61.19h-.81Z" fill="#FFDC00"/><path d="m300.77 287.829-1.57-1.209q-1.57-1.21-4.12-5.48-2.54-4.27-3.14-8.56-.6-4.29 2.16-9.32 2.77-5.02 7.17-6.61 4.4-1.59 8.98-2.01 4.58-.42 9.02 2.12 4.44 2.54 5.81 7.17 1.37 4.64 1.57 8.71.2 4.07-1.56 9.03-1.76 4.96-5.54 6.66-3.77 1.7-8.18 1.89-4.41.18-9.5-.83-5.08-1.02-7.83-4.72-2.74-3.71-3.43-8.06-.68-4.35-.4-9.45.29-5.09 2.74-8.28 2.45-3.18 6.18-4.89 3.74-1.7 7.83-2.42 4.09-.73 8.43.82 4.33 1.54 6.67 6.22 2.33 4.67 1.83 10.27t-4.3 9.22q-3.8 3.63-6.95 5.29-3.15 1.66-4.91 1.64-1.75-.01-3.41-.59-1.66-.57-3.05-1.64-1.39-1.08-2.37-2.54-.97-1.46-1.42-3.16-.46-1.69-.35-3.45.11-1.75.77-3.38.67-1.62 1.81-2.95 1.15-1.33 2.66-2.22 1.52-.9 3.23-1.26 1.72-.36 3.47-.16 1.74.21 3.33.96t2.85 1.97q1.27 1.21 2.08 2.77t1.08 3.3q.27 1.73-.03 3.46-.3 1.73-1.14 3.28-.83 1.54-2.12 2.74-1.28 1.2-2.88 1.92-1.6.73-3.35.9-1.75.18-3.46-.22-1.71-.39-3.21-1.31-1.5-.91-2.62-2.26-1.13-1.35-1.76-2.99-.64-1.63-.72-3.39-.08-1.75.4-3.44.49-1.69 1.49-3.13.99-1.45 2.4-2.5t3.08-1.6q1.67-.55 1.66-.54l-1.57.64q-1.58.65 2.11 2.37 3.7 1.72 2.57 5.91-1.12 4.2 2 1.61 3.13-2.59-.75-.81-3.87 1.78-2.48 3.13 1.4 1.36 1.93 1.95.54.59.92 1.29.38.7.58 1.48.2.77.21 1.57.01.79-.17 1.57-.18.78-.54 1.49-.37.71-.89 1.31-.52.61-1.17 1.07-.65.46-1.4.75-.74.3-1.53.4-.79.11-1.58.02-.8-.08-1.55-.36-.75-.27-1.41-.72l-.66-.44Z"/><path d="M312.872 264.185q-.002-.005.538.085.55.09 1.03.35.49.26.87.66.37.4.6.89.24.5.29 1.05.06.55-.05 1.08-.12.54-.41 1.01-.28.47-.7.83-.42.35-.93.56-.51.2-1.06.23t-1.08-.12q-.53-.14-.98-.45-.45-.31-.79-.75-.33-.44-.51-.96-.17-.52-.17-1.07t.17-1.07q.18-.52.51-.96.34-.43.79-.74.46-.31.99-.46.53-.15 1.07-.12.55.03 1.06.24.51.2.93.56.42.35.7.82.29.48.41 1.01.11.54.05 1.09-.05.54-.29 1.04-.23.5-.6.9-.38.4-.87.65-.48.26-1.03.35l-.54.09-.41-.03q-.41-.03-.79-.16-.39-.13-.74-.35-.35-.22-.63-.51-.29-.3-.49-.65-.21-.35-.33-.75-.11-.39-.13-.8-.02-.41.06-.81.08-.4.26-.78.17-.37.43-.68.26-.32.59-.57.32-.25.7-.41.38-.16.78-.23.41-.07.55-.07Z" fill="#FFF"/><path d="M257.984 353.346q-.004.004.116 2.804.12 2.8 1.29 6.66 1.18 3.86 3.03-.15 1.86-4.01 1.93-6.26.07-2.25.32-3.76.25-1.52.98-2.88.72-1.35 1.83-2.41 1.12-1.05 2.52-1.7 1.39-.64 2.92-.8 1.53-.17 3.03.16 1.5.34 2.81 1.13 1.32.8 2.31 1.97 1 1.17 1.56 2.6.57 1.43.65 2.96.08 1.54-.33 3.02-.41 1.48-1.28 2.75-.86 1.27-2.09 2.2-1.22.93-2.68 1.41-1.46.49-2.99.49-1.54 0-3-.5-1.45-.49-2.67-1.42-1.23-.93-2.09-2.21-.86-1.27-1.26-2.75-.41-1.48-.33-3.02.09-1.53.66-2.96.57-1.42 1.57-2.59.99-1.17 2.31-1.96t2.82-1.12q1.5-.33 3.03-.16 1.53.17 2.92.82 1.39.64 2.51 1.7 1.11 1.06 1.83 2.42.72 1.36.96 2.88l.25 1.51-.22 3.01q-.21 3.01-.96 7.27-.74 4.27-2.65 8.37-1.92 4.11-5.42 7.61-3.5 3.49-8.25 4.52-4.75 1.03-9.03-.42-4.29-1.45-6.51-4.78-2.21-3.33-3.67-7.24t-1.92-8.74q-.46-4.83-.34-7.63t.21-3.61q.1-.8.39-1.56.29-.75.74-1.42.46-.66 1.07-1.2.6-.54 1.32-.91.72-.38 1.5-.57.79-.19 1.6-.19.8 0 1.59.19.78.19 1.5.57.72.37 1.32.91.61.54 1.07 1.2.46.67.74 1.42.29.76.39 1.56l.09.81Z" fill="#F012BE"/><path d="M129.952 187.369q-.002.001-.192-7.259-.19-7.26-.7-16.86-.51-9.61-.76-19.41-.24-9.81.3-18.79.54-8.98.61-10.88.07-1.91.33-3.99.26-2.09 1.01-4.05.76-1.96 1.96-3.69 1.19-1.72 2.77-3.11 1.58-1.38 3.44-2.35 1.87-.97 3.91-1.47 2.04-.49 4.14-.49 2.1.01 4.14.52 2.04.51 3.89 1.5 1.86.98 3.43 2.38 1.56 1.4 2.75 3.13t1.92 3.7q.74 1.97.99 4.05.24 2.09 4.26 9.04 4.01 6.95 8.35 15.95 4.34 8.99 3 7.57-1.34-1.43.69.94 2.03 2.36 3.2 5.26 1.17 2.89 1.35 6 .18 3.11-.64 6.12-.82 3.01-2.56 5.6-1.74 2.59-4.21 4.49-2.48 1.89-5.43 2.9-2.95 1.01-6.07 1.02-3.12.02-6.08-.97-2.96-.98-5.45-2.86-2.49-1.87-4.25-4.45-1.76-2.57-2.61-5.57-.85-3-.69-6.12.16-3.11 1.3-6.01 1.14-2.91 3.15-5.29 2.01-2.39 4.67-4 2.67-1.62 5.71-2.31 3.04-.68 6.15-.36 3.1.33 5.93 1.63 2.84 1.29 5.11 3.43 2.28 2.13 3.75 4.88 1.47 2.75 1.99 5.83.51 3.07.02 6.15-.49 3.08-1.94 5.84-1.45 2.77-3.7 4.92-2.26 2.15-5.08 3.47-2.83 1.32-5.93 1.67-3.1.35-6.14-.3-3.05-.66-5.73-2.26-2.68-1.6-2.68-1.59l-1.57-3.48q-1.57-3.47-7.05-13.81-5.49-10.33-8.51-17.79-3.02-7.45-4.97-15.52-1.95-8.06-1.69-10.14.26-2.09 1.01-4.05t1.95-3.68q1.2-1.73 2.78-3.12 1.58-1.38 3.44-2.35 1.87-.97 3.91-1.47 2.04-.49 4.14-.49 2.1.01 4.14.52 2.03.51 3.89 1.49 1.86.99 3.42 2.39 1.57 1.4 2.76 3.13 1.19 1.73 1.92 3.7.74 1.96.99 4.05.24 2.09-.27 6.12t-1.97 12.08q-1.46 8.05-2.21 16.59-.76 8.55-1.27 18.16-.51 9.6-.7 16.86-.2 7.26-.39 8.89-.2 1.64-.79 3.18-.58 1.54-1.52 2.89-.93 1.36-2.16 2.45-1.24 1.09-2.69 1.86-1.46.76-3.06 1.16-1.6.39-3.25.39-1.64 0-3.24-.39-1.6-.4-3.06-1.16-1.46-.77-2.69-1.86t-2.17-2.45q-.93-1.35-1.52-2.89-.58-1.54-.78-3.18l-.2-1.63Zm186.411-28.189q-.003 0 3.797-5.21 3.79-5.21 9.01-12.05 5.21-6.83 10.79-12.8 5.57-5.96 17.76-9.76 12.2-3.8 16.81 2.79 4.6 6.58 5.25 16.17.65 9.59.87 17.81.22 8.22-1.36 16.51-1.58 8.29-2.91 17.33-1.33 9.03-1.14 8 .18-1.04-.37 1.21-.55 2.26-1.63 4.32-1.07 2.06-2.6 3.8-1.54 1.74-3.45 3.07-1.91 1.32-4.07 2.15-2.17.83-4.48 1.11-2.3.29-4.61.01-2.3-.27-4.48-1.09-2.17-.82-4.08-2.13-1.92-1.32-3.46-3.05-1.55-1.73-2.63-3.79-1.09-2.05-1.65-4.3-.56-2.26-.56-4.58-.01-2.32-6.73-5.96-6.73-3.63-8.22-6.5-1.49-2.88-1.99-6.08t.05-6.39q.55-3.19 2.1-6.04 1.54-2.85 3.91-5.05 2.37-2.21 5.32-3.54 2.95-1.34 6.17-1.66 3.22-.32 6.38.4 3.15.72 5.91 2.42 2.76 1.69 4.84 4.17 2.07 2.49 3.25 5.51 1.17 3.02 1.32 6.25.15 3.24-.75 6.35-.89 3.11-2.73 5.78-1.84 2.66-4.44 4.6-2.59 1.94-5.67 2.94-3.08 1.01-6.31.98-3.24-.02-6.3-1.09-3.06-1.06-5.62-3.04t-4.36-4.68q-1.79-2.69-2.63-5.82-.84-3.13-.64-6.36.21-3.23 1.43-6.23 1.23-3 3.35-5.44 2.11-2.45 4.9-4.1 2.79-1.64 5.96-2.31 3.17-.67 6.38-.29 3.22.37 6.15 1.76 2.92 1.39 5.26 3.63 2.33 2.25 2.32 2.25 0-.01 2.3 3.24 2.31 3.25 7.53 10.06 5.23 6.8 7.52 14.63 2.29 7.84 1.74 10.09-.55 2.26-1.62 4.32-1.08 2.06-2.61 3.8-1.54 1.74-3.45 3.06-1.9 1.33-4.07 2.16-2.17.83-4.48 1.11-2.3.29-4.61.01-2.3-.27-4.48-1.09-2.17-.82-4.08-2.13-1.92-1.31-3.46-3.05-1.55-1.73-2.63-3.79-1.08-2.05-1.65-4.3-.56-2.26-.56-4.58-.01-2.32.68-4.53.69-2.2 2.26-10.28 1.58-8.08 3.45-16.75 1.88-8.67 6.82-16.3 4.94-7.64 13.12-6.69 8.18.95 1.95 6.42-6.23 5.47-12.97 12.38-6.74 6.91-10.89 11.83-4.16 4.93-5.3 6.07-1.14 1.14-2.53 1.97-1.38.83-2.92 1.31-1.54.48-3.15.58-1.61.09-3.2-.2-1.58-.29-3.06-.95-1.47-.67-2.74-1.66-1.27-1-2.26-2.27-1-1.27-1.66-2.74-.66-1.47-.95-3.06-.29-1.59-.19-3.2.1-1.61.58-3.15.48-1.54 1.32-2.92l.83-1.38Z" fill="#FFF"/><path d="M142.465 87.45q-.005 0 .095 3.31t.35 8.53q.26 5.23.46 9.88.21 4.65.38 8.97t.35 9.17q.19 4.85.34 9.36.15 4.5.3 9.81.15 5.32.25 10.34t.19 9.8q.09 4.77.17 8.81.08 4.04.16 8.58t.14 8.77q.05 4.24.12 8.26.07 4.02.07 5.53 0 1.52-.27 3.17-.27 1.66-1.06 3.14-.79 1.49-2.01 2.64-1.21 1.15-2.74 1.86-1.52.7-3.19.88-1.67.19-3.31-.18-1.63-.36-3.07-1.22-1.44-.87-2.53-2.15-1.08-1.27-1.7-2.83-.63-1.56-.72-3.24-.09-1.67.36-3.29.45-1.62 1.39-3.01.95-1.39 2.28-2.4 1.34-1.02 2.93-1.55 1.59-.54 3.27-.54t3.27.54q1.59.53 2.92 1.55 1.34 1.02 2.28 2.4.94 1.39 1.39 3.01.45 1.62.36 3.29-.09 1.68-.72 3.24-.62 1.56-1.7 2.84-1.09 1.28-2.53 2.14-1.44.87-3.08 1.23-1.64.36-3.3.17-1.67-.18-3.2-.88-1.52-.71-2.74-1.86-1.21-1.16-2-2.64-.79-1.48-1.06-3.14-.27-1.66-.27-1.65v-1.52q0-1.51.07-5.53.07-4.02.12-8.26.06-4.23.14-8.77.08-4.54.16-8.58t.17-8.81q.09-4.78.19-9.8.1-5.02.25-10.34.15-5.31.3-9.81.15-4.51.34-9.36.18-4.85.35-9.17.17-4.32.38-8.97.2-4.65.46-9.88.25-5.22.35-8.53.1-3.31.2-4.15.1-.83.4-1.62.3-.79.78-1.49.48-.69 1.11-1.25.63-.56 1.38-.95.74-.39 1.56-.6.82-.2 1.67-.2.84 0 1.66.2.82.21 1.56.6.75.39 1.38.95.63.56 1.11 1.25.48.7.78 1.49.3.79.4 1.62l.1.84Z"/><path d="m151.81 87.12 3.16 2.7q3.17 2.69 7.12 6.39 3.95 3.71 7.09 7.64 3.15 3.93 5.95 8.66 2.81 4.74 5.1 9.13 2.28 4.38 4.55 9.02t4.72 8.41q2.44 3.76 4.86 7.44 2.43 3.67 4.86 7.29 2.43 3.61 2.67 5.16.25 1.54-.01 3.09-.27 1.54-1.01 2.92-.74 1.37-1.88 2.44-1.14 1.07-2.56 1.72-1.43.65-2.98.81-1.56.16-3.08-.18-1.53-.35-2.87-1.16-1.33-.81-2.34-2.01-1-1.2-1.57-2.66-.57-1.45-.65-3.02-.08-1.56.35-3.06.43-1.51 1.31-2.8.89-1.29 2.14-2.23t2.73-1.43q1.49-.49 3.05-.48 1.57.01 3.05.52 1.48.51 2.72 1.46 1.24.95 2.11 2.25.87 1.3 1.28 2.81.41 1.51.31 3.07-.09 1.56-.68 3.01-.59 1.45-1.6 2.64-1.02 1.19-2.37 1.98-1.34.8-2.87 1.13-1.53.33-3.09.15-1.55-.18-2.97-.84-1.41-.67-2.54-1.75-1.13-1.08-1.86-2.47l-.72-1.38-.2-.01q-.21-.01-2.59-3.78-2.39-3.78-4.54-7.46-2.15-3.69-4.02-7.63-1.87-3.95-3.73-8.65-1.87-4.7-3.97-9.39-2.09-4.69-5.6-10.47-3.52-5.78-6.73-9.29-3.22-3.52-6.3-6.3-3.09-2.78-3.66-3.42-.57-.63-.96-1.38-.4-.75-.61-1.57-.21-.83-.21-1.68-.01-.85.19-1.67.2-.83.59-1.58.39-.76.95-1.4.56-.64 1.26-1.12.69-.49 1.49-.8.79-.3 1.63-.41.85-.11 1.69-.01t1.64.4q.8.29 1.5.77l.7.48Z"/><path d="M197.414 165.174q-.004-.004-1.624 1.926t-5.23 5.35q-3.61 3.42-7.48 6.26-3.86 2.84-7.05 5.36-3.19 2.53-5.71 5.69-2.51 3.17-4.68 6.68t-4.5 7.07q-2.33 3.57-2.61 8.19-.27 4.63-.54 6.23-.26 1.61-1.02 3.05-.77 1.44-1.95 2.56-1.18 1.11-2.66 1.8-1.47.68-3.09.86-1.62.17-3.21-.18-1.59-.35-2.98-1.19-1.4-.84-2.45-2.08-1.06-1.24-1.66-2.75-.6-1.51-.69-3.14-.09-1.62.35-3.19.43-1.57 1.35-2.92.91-1.34 2.21-2.33 1.29-.98 2.84-1.5 1.54-.52 3.17-.52 1.62 0 3.17.52 1.54.52 2.84 1.5 1.29.99 2.2 2.34.92 1.34 1.35 2.91.44 1.57.35 3.2-.09 1.62-.69 3.13-.61 1.52-1.66 2.76-1.05 1.24-2.45 2.08-1.39.83-2.98 1.18t-3.21.18q-1.62-.18-3.1-.86-1.47-.69-2.65-1.81-1.19-1.12-1.95-2.56-.76-1.43-1.02-3.04l-.27-1.61.09-4.37q.08-4.39 1.27-8.29 1.19-3.91 4.01-7.84 2.81-3.93 5.17-7.17 2.36-3.24 4.93-6.85 2.58-3.6 5.77-6.22 3.19-2.62 6.76-4.92t7.13-4.29q3.55-1.98 7.17-4.36 3.62-2.37 5.42-4.13 1.8-1.76 2.42-2.28.61-.52 1.33-.88.72-.35 1.5-.53.78-.17 1.59-.15.8.02 1.57.23.78.21 1.48.59.7.39 1.29.94.59.55 1.03 1.22.44.67.71 1.42.26.76.34 1.56.08.8-.04 1.59-.11.8-.41 1.54t-.78 1.39l-.47.65Zm104.188 4.048q-.002-.002 1.558-3.292t4.56-8.37q3.01-5.07 5.67-8.42 2.65-3.35 6.42-7.48 3.77-4.12 6.55-7.08 2.79-2.95 5.89-6.43 3.1-3.47 6.09-6.23 2.99-2.75 6.05-5.99 3.06-3.24 6.2-5.84 3.14-2.6 7.41-4.2 4.26-1.61 8.27-.47 4.01 1.14 7.02 3.81 3 2.66 5.61 6.02 2.61 3.36 4.68 7.15 2.06 3.8 2.82 8.2.76 4.39.85 8.69.09 4.3.13 9.08.03 4.78-.4 9.27-.44 4.5-1.1 9.11-.65 4.61-1.28 9.11-.63 4.5-1.46 9.52t-1.66 9.19q-.83 4.18-1.65 8.22-.81 4.04-1.63 8.07-.81 4.03-1.74 8.13-.92 4.11-3.36 8.09-2.44 3.97-8.02 4.61-5.58.64-9.45-1.88-3.86-2.52-7.71-5.29-3.85-2.78-8.04-6.18-4.19-3.4-7.12-6.52-2.92-3.12-5.97-6.89-3.06-3.77-5.87-7.21-2.81-3.45-6.2-6.41t-3.23-4.51q.15-1.54-1.53-2.1-1.69-.56-3.11-1.63-1.42-1.07-2.43-2.54-1-1.47-1.49-3.18-.48-1.71-.39-3.49.08-1.78.74-3.43.65-1.66 1.79-3.02 1.15-1.36 2.67-2.28 1.52-.93 3.25-1.32 1.74-.39 3.51-.2 1.77.18 3.38.92 1.62.74 2.92 1.96 1.3 1.22 2.14 2.78.84 1.57 1.13 3.32.3 1.76.02 3.52-.28 1.75-1.11 3.33-.82 1.57-2.11 2.8-1.29 1.23-2.9 1.98-1.61.76-3.38.96-1.76.2-3.5-.18-1.74-.37-3.27-1.28t-2.69-2.26q-1.15-1.35-1.82-3-.66-1.65-.77-3.43-.1-1.77.37-3.49.46-1.72 1.46-3.19.99-1.48 2.4-2.56t3.09-1.66q1.69-.57 3.47-.58l1.77-.01 5.52 4.25q5.51 4.25 8.49 6.96 2.97 2.71 6.36 6.35 3.38 3.64 6.15 7.18 2.77 3.53 5.72 7.01 2.94 3.49 6.4 6.26 3.46 2.77 6.2 6.36 2.73 3.6-1 5.57-3.72 1.97-2.55-2.94 1.17-4.91 1.93-8.85.75-3.94 1.76-9.06 1.01-5.12 1.83-10.08.83-4.97 1.51-9.71.69-4.74 1.34-9.12.65-4.38 1.01-8.53.36-4.15.4-8.76.04-4.62-.07-9.11-.11-4.5-1.87-8.26-1.76-3.77-4.88-1.07t-6.6 5.61q-3.48 2.91-6.51 5.7t-6.53 6.09q-3.49 3.29-6.84 6.26-3.34 2.97-6.52 6.18-3.18 3.22-5.99 7.23-2.82 4.01-4.53 7.23-1.71 3.21-2.17 3.92-.47.7-1.09 1.27-.62.57-1.36.98-.74.41-1.56.62-.82.22-1.66.24-.84.01-1.67-.18-.82-.18-1.58-.56-.75-.38-1.39-.93-.64-.55-1.14-1.23-.49-.69-.8-1.47-.32-.79-.43-1.62-.12-.84-.03-1.68.08-.84.37-1.63l.28-.8Z"/></svg>